<?xml version="1.0" encoding="UTF-8"?>
<svg version="1.1" xmlns="http://www.w3.org/2000/svg" width="445" height="130">
<path d="M0 0 C4.47719455 1.68128959 4.69998618 2.51476521 6.65625 6.7109375 C7.62755842 9.07569342 8.56837296 11.45311988 9.484375 13.83984375 C9.9890645 15.10074852 10.49642394 16.36058766 11.00634766 17.61938477 C11.79453506 19.5688263 12.57945165 21.51919284 13.35305786 23.47447205 C15.14064674 27.98887086 17.04190248 32.43872254 19.0234375 36.87109375 C19.54196289 38.04357666 20.06048828 39.21605957 20.59472656 40.42407227 C21.58893056 42.66615932 22.59318132 44.90382369 23.60839844 47.13647461 C24.04958008 48.15104736 24.49076172 49.16562012 24.9453125 50.2109375 C25.34024902 51.09579834 25.73518555 51.98065918 26.14208984 52.89233398 C26.89197948 56.07024634 26.22859989 57.55461827 24.734375 60.40234375 C23.734375 61.40234375 23.734375 61.40234375 21.421875 61.83984375 C18.734375 61.40234375 18.734375 61.40234375 16.546875 58.90234375 C14.734375 55.40234375 14.734375 55.40234375 12.734375 47.40234375 C-0.630625 47.89734375 -0.630625 47.89734375 -14.265625 48.40234375 C-16.245625 52.36234375 -18.225625 56.32234375 -20.265625 60.40234375 C-21.265625 61.40234375 -21.265625 61.40234375 -23.703125 61.58984375 C-26.265625 61.40234375 -26.265625 61.40234375 -28.265625 59.40234375 C-27.96825358 53.74917526 -26.14360534 49.17014453 -23.87890625 44.08203125 C-23.53941452 43.30151398 -23.19992279 42.5209967 -22.85014343 41.71682739 C-21.7674585 39.23341699 -20.67287423 36.75545572 -19.578125 34.27734375 C-18.86187371 32.63704887 -18.14637243 30.99642629 -17.43164062 29.35546875 C-15.39701761 24.69512769 -13.33817371 20.0459304 -11.265625 15.40234375 C-10.96315857 14.72320923 -10.66069214 14.04407471 -10.34906006 13.34436035 C-9.52896654 11.50947941 -8.70030995 9.67843257 -7.87109375 7.84765625 C-7.18309692 6.32809326 -7.18309692 6.32809326 -6.48120117 4.77783203 C-4.68515067 1.26797636 -3.99312182 0.49197554 0 0 Z M-1.265625 17.40234375 C-2.60497216 20.35799083 -3.93606747 23.31728155 -5.265625 26.27734375 C-5.6471875 27.11910156 -6.02875 27.96085937 -6.421875 28.828125 C-6.7828125 29.63378906 -7.14375 30.43945312 -7.515625 31.26953125 C-7.85078125 32.01315918 -8.1859375 32.75678711 -8.53125 33.52294922 C-9.38694241 35.37651986 -9.38694241 35.37651986 -9.265625 37.40234375 C-3.655625 37.40234375 1.954375 37.40234375 7.734375 37.40234375 C6.5896875 34.12296875 6.5896875 34.12296875 5.421875 30.77734375 C4.77798828 28.93269531 4.77798828 28.93269531 4.12109375 27.05078125 C2.84787507 23.70096084 1.39779794 20.5730913 -0.265625 17.40234375 C-0.595625 17.40234375 -0.925625 17.40234375 -1.265625 17.40234375 Z " fill="#1F2F66" transform="translate(140.265625,31.59765625)"/>
<path d="M0 0 C1.2375 0.1546875 1.2375 0.1546875 2.5 0.3125 C4.63604308 3.51656462 4.74208908 4.30850747 4.6953125 7.98046875 C4.69031738 8.78508545 4.68532227 9.58970215 4.68017578 10.41870117 C4.65286377 11.94394409 4.65286377 11.94394409 4.625 13.5 C4.58375 16.738125 4.5425 19.97625 4.5 23.3125 C13.41 23.3125 22.32 23.3125 31.5 23.3125 C31.42091458 16.49129589 31.42091458 16.49129589 31.31982422 9.67041016 C31.3148291 8.82269043 31.30983398 7.9749707 31.3046875 7.1015625 C31.28897705 5.79759521 31.28897705 5.79759521 31.27294922 4.46728516 C31.5 2.3125 31.5 2.3125 33.5 0.3125 C36 0.0625 36 0.0625 38.5 0.3125 C41.0569742 2.8694742 40.75709382 3.8236207 40.7746582 7.37304688 C40.78895622 8.95478699 40.78895622 8.95478699 40.80354309 10.56848145 C40.80263168 11.71119507 40.80172028 12.85390869 40.80078125 14.03125 C40.80506638 15.20006714 40.8093515 16.36888428 40.81376648 17.57312012 C40.81951757 20.04792634 40.82000434 22.52274948 40.81567383 24.99755859 C40.81251303 28.79684077 40.83596739 32.59534541 40.86132812 36.39453125 C40.86360083 38.79426985 40.86430475 41.19401055 40.86328125 43.59375 C40.872491 44.73646362 40.88170074 45.87917725 40.89118958 47.05651855 C40.88496078 48.11101196 40.87873199 49.16550537 40.87231445 50.25195312 C40.87294388 51.1830188 40.8735733 52.11408447 40.8742218 53.07336426 C40.75072861 53.81227905 40.62723541 54.55119385 40.5 55.3125 C37.5 57.3125 37.5 57.3125 34.875 57.0625 C34.09125 56.815 33.3075 56.5675 32.5 56.3125 C31.2736243 53.85974859 31.38584686 52.2619219 31.40234375 49.5234375 C31.40484131 48.67571777 31.40733887 47.82799805 31.40991211 46.95458984 C31.41901611 45.8764502 31.42812012 44.79831055 31.4375 43.6875 C31.458125 40.26375 31.47875 36.84 31.5 33.3125 C22.59 33.3125 13.68 33.3125 4.5 33.3125 C4.6185022 40.08886458 4.6185022 40.08886458 4.77026367 46.86450195 C4.77775635 47.70972412 4.78524902 48.55494629 4.79296875 49.42578125 C4.81653442 50.72189331 4.81653442 50.72189331 4.84057617 52.04418945 C4.5 54.3125 4.5 54.3125 3.14575195 56.13354492 C1.5 57.3125 1.5 57.3125 -1.125 57.0625 C-3.5 56.3125 -3.5 56.3125 -4.5 55.3125 C-4.60389938 53.66605712 -4.63852583 52.01518268 -4.64526367 50.36547852 C-4.65164352 49.31090958 -4.65802338 48.25634064 -4.66459656 47.16981506 C-4.66570938 46.02194016 -4.6668222 44.87406525 -4.66796875 43.69140625 C-4.67129715 42.52117416 -4.67462555 41.35094208 -4.67805481 40.14524841 C-4.68312909 37.66446324 -4.68546298 35.18367122 -4.68530273 32.70288086 C-4.68748857 28.89490581 -4.70563751 25.08722057 -4.72460938 21.27929688 C-4.72754324 18.875001 -4.72952808 16.47070373 -4.73046875 14.06640625 C-4.73765427 12.92055557 -4.74483978 11.7747049 -4.75224304 10.59413147 C-4.74916641 9.53641037 -4.74608978 8.47868927 -4.74291992 7.38891602 C-4.74434494 6.45483414 -4.74576996 5.52075226 -4.74723816 4.55836487 C-4.37806951 1.20490636 -3.29132769 0.41141596 0 0 Z " fill="#5DA8FC" transform="translate(320.5,35.6875)"/>
<path d="M0 0 C0.78375 0.2475 1.5675 0.495 2.375 0.75 C4.0248007 4.04960141 3.75758361 7.74127884 3.9375 11.375 C3.98068359 12.17679688 4.02386719 12.97859375 4.06835938 13.8046875 C4.17451457 15.7862511 4.27526855 17.76810271 4.375 19.75 C5.26445312 19.2653125 6.15390625 18.780625 7.0703125 18.28125 C11.67585469 16.14723991 15.3923751 15.93494099 20.375 16.75 C26.02372585 19.01335933 29.46024894 22.38685805 32.375 27.75 C34.41521328 33.87063983 34.46823014 41.24048038 31.8125 47.1875 C28.95490751 52.08622999 24.6821042 54.98096527 19.375 56.75 C12.32526369 57.44472361 6.1189705 57.23055749 0.375 52.75 C-3.49237168 48.5064999 -5.73051654 44.50682156 -5.78613281 38.67749023 C-5.79574036 37.86332138 -5.8053479 37.04915253 -5.81524658 36.21031189 C-5.81949646 35.3352449 -5.82374634 34.46017792 -5.828125 33.55859375 C-5.83382507 32.6575441 -5.83952515 31.75649445 -5.84539795 30.82814026 C-5.8548398 28.92425713 -5.8613787 27.02035772 -5.86523438 25.11645508 C-5.87497436 22.1951894 -5.9060189 19.27461721 -5.9375 16.35351562 C-5.94402676 14.50521252 -5.94927851 12.65690438 -5.953125 10.80859375 C-5.9654718 9.93150253 -5.9778186 9.05441132 -5.99053955 8.15074158 C-5.98144531 5.69311523 -5.98144531 5.69311523 -5.625 1.75 C-2.625 -0.25 -2.625 -0.25 0 0 Z M5.375 29.75 C3.09740283 33.3149347 3.032402 36.64660764 3.7109375 40.8125 C4.95278151 44.43576252 7.17762891 45.85526158 10.375 47.75 C14.31251167 48.30263322 16.56003256 48.11220775 20.1875 46.5 C22.6024606 44.56803152 23.49730435 43.70224902 24.375 40.75 C24.71453264 36.47188871 24.82008272 33.8275687 23.1875 29.875 C20.48277414 26.7039421 17.97350317 25.99592356 13.9375 25.375 C10.26761929 25.91205571 8.21847544 27.41203131 5.375 29.75 Z " fill="#5EA9FB" transform="translate(410.625,36.25)"/>
<path d="M0 0 C0.66 0 1.32 0 2 0 C4.62589351 5.224505 5.42195616 9.24945091 4.9375 15.125 C4.85459717 16.2392334 4.85459717 16.2392334 4.77001953 17.37597656 C3.05884585 36.47382382 -6.42593806 51.53919775 -20.35546875 64.12890625 C-31.81017137 73.51568025 -44.52158729 77.61590102 -59.26171875 77.375 C-64.05038583 76.89463214 -68.16567155 75.58032179 -72.609375 73.77734375 C-75.10374315 72.70453269 -75.10374315 72.70453269 -78 74 C-82.47732458 74.36107456 -84.93126855 74.54573521 -88.9375 72.5 C-91.33250958 69.59695809 -91.94802397 67.73670202 -92.2109375 64.03515625 C-91.85759612 60.62606627 -90.17260073 58.54504658 -88 56 C-84.77359912 54.38679956 -81.4885244 54.41189627 -78 55 C-75.0625 57.125 -75.0625 57.125 -73 60 C-72.896875 61.03125 -72.79375 62.0625 -72.6875 63.125 C-72.28065804 66.31233771 -72.28065804 66.31233771 -69 67.875 C-58.08077678 71.15469474 -45.16513941 69.87584527 -35 65 C-24.91969232 59.51166204 -24.91969232 59.51166204 -17.875 50.75 C-17 49 -17 49 -14 48 C-4.06785521 33.88697291 -1.39549287 19.72840049 -1.1418457 2.74316406 C-1 1 -1 1 0 0 Z " fill="#5DA5FB" transform="translate(103,39)"/>
<path d="M0 0 C2.9375 1.9375 2.9375 1.9375 5 5 C5.63396319 8.12532731 5.64809361 10.87630555 5 14 C3.12379387 16.50160818 1.76108697 17.61945652 -1 19 C-0.98839844 19.78503906 -0.97679687 20.57007812 -0.96484375 21.37890625 C-0.88221022 30.99981053 -0.88221022 30.99981053 -1.6875 35 C-2.30423101 38.03608325 -2.30423101 38.03608325 -0.5625 40.4375 C-0.046875 40.953125 0.46875 41.46875 1 42 C0.34 43.32 -0.32 44.64 -1 46 C-1.5775 45.835 -2.155 45.67 -2.75 45.5 C-6.66529305 44.62993488 -8.89289262 44.95302308 -12.5625 46.5625 C-17.04281318 48.36299969 -20.7227349 47.87105098 -25.43359375 47.26171875 C-28.44493998 46.9546256 -31.06489314 47.28605509 -34 48 C-33.0719697 43.22727273 -33.0719697 43.22727273 -32.40625 41.125 C-31.91284612 38.54411817 -32.30278565 36.78885738 -32.9375 34.25 C-33.22947266 33.05117187 -33.22947266 33.05117187 -33.52734375 31.828125 C-33.68332031 31.22484375 -33.83929688 30.6215625 -34 30 C-34.928125 29.9175 -35.85625 29.835 -36.8125 29.75 C-40 29 -40 29 -41.8125 27.3125 C-43.3081401 24.3999377 -43.8686128 22.28467995 -44 19 C-42.47126129 15.02527937 -41.57219503 13.38146335 -38 11 C-31.08001641 10.21871153 -31.08001641 10.21871153 -27.0625 13.125 C-24.74741662 16.35208593 -24 18.03760154 -24 22 C-25.25 25.3125 -25.25 25.3125 -27 28 C-27.99 28.33 -28.98 28.66 -30 29 C-29.34 31.64 -28.68 34.28 -28 37 C-26.68 37.33 -25.36 37.66 -24 38 C-23.27876953 38.76763672 -23.27876953 38.76763672 -22.54296875 39.55078125 C-21.07282447 41.21490263 -21.07282447 41.21490263 -18.73828125 41.29296875 C-17.53751953 41.24076172 -17.53751953 41.24076172 -16.3125 41.1875 C-15.50425781 41.16042969 -14.69601563 41.13335937 -13.86328125 41.10546875 C-12.94095703 41.05326172 -12.94095703 41.05326172 -12 41 C-11.9175 40.21625 -11.835 39.4325 -11.75 38.625 C-11.5025 37.75875 -11.255 36.8925 -11 36 C-10.3503125 35.773125 -9.700625 35.54625 -9.03125 35.3125 C-6.59311112 34.06883314 -6.59311112 34.06883314 -6.171875 30.5234375 C-6.01255385 29.14265418 -5.87261482 27.7595257 -5.75 26.375 C-5.67265625 25.66859375 -5.5953125 24.9621875 -5.515625 24.234375 C-5.32718389 22.4912947 -5.16141131 20.74579076 -5 19 C-5.78761719 18.70480469 -6.57523438 18.40960938 -7.38671875 18.10546875 C-10.46819161 16.80194585 -11.47555109 15.96866366 -13 13 C-13.54046356 8.75350057 -13.48376179 6.74176808 -11.125 3.125 C-7.55800211 -0.44199789 -4.99020234 -0.5074782 0 0 Z " fill="#7B93F7" transform="translate(71,38)"/>
<path d="M0 0 C3.07042974 2.2053202 5.01837706 4.86878538 6.69140625 8.21484375 C6.77541154 9.80931839 6.79868092 11.4072492 6.7890625 13.00390625 C6.78583984 13.94492188 6.78261719 14.8859375 6.77929688 15.85546875 C6.76672852 17.33273438 6.76672852 17.33273438 6.75390625 18.83984375 C6.74939453 19.83242187 6.74488281 20.825 6.74023438 21.84765625 C6.7284277 24.30344535 6.71196025 26.75911479 6.69140625 29.21484375 C8.01140625 29.54484375 9.33140625 29.87484375 10.69140625 30.21484375 C10.73382348 32.5477915 10.73233562 34.88186942 10.69140625 37.21484375 C10.36140625 37.54484375 10.03140625 37.87484375 9.69140625 38.21484375 C7.35195889 37.9275432 5.01749195 37.59547596 2.69140625 37.21484375 C2.36140625 35.89484375 2.03140625 34.57484375 1.69140625 33.21484375 C0.92828125 33.85421875 0.16515625 34.49359375 -0.62109375 35.15234375 C-5.01952646 38.52788513 -8.9947091 38.67822051 -14.37890625 38.62109375 C-19.35171575 37.93153083 -22.73038183 35.64684916 -26.30859375 32.21484375 C-30.72910565 25.91896316 -30.1249072 17.63369246 -29.30859375 10.21484375 C-27.05572579 4.81948099 -24.19655523 0.94762064 -19.12109375 -2.09765625 C-12.28401603 -3.76894191 -6.17436256 -3.50504218 0 0 Z M-21.18359375 11.33984375 C-22.81537561 15.50995296 -22.55493465 18.94167496 -21.30859375 23.21484375 C-18.82842695 26.82235909 -16.66492023 28.43107845 -12.43359375 29.27734375 C-7.67016008 29.59310166 -5.06843672 28.07232441 -1.30859375 25.21484375 C0.86989083 21.61560835 1.12419458 18.36961169 0.69140625 14.21484375 C-0.75392541 10.76210702 -1.96144734 9.43856033 -5.12109375 7.40234375 C-11.83730078 4.9002274 -16.43119978 5.95379725 -21.18359375 11.33984375 Z " fill="#203066" transform="translate(299.30859375,54.78515625)"/>
<path d="M0 0 C1.2375 0.1546875 1.2375 0.1546875 2.5 0.3125 C4.65905497 3.55108246 4.75612853 4.52968139 4.80859375 8.27734375 C4.84629883 9.72463867 4.84629883 9.72463867 4.88476562 11.20117188 C4.91985322 13.22975496 4.95111837 15.25840785 4.97851562 17.28710938 C5.00494141 18.25326172 5.03136719 19.21941406 5.05859375 20.21484375 C5.07204834 21.09648193 5.08550293 21.97812012 5.09936523 22.88647461 C5.58342787 25.81769363 6.4152658 27.21087315 8.5 29.3125 C12.3654622 29.66390565 15.79567073 29.49788537 19.5 28.3125 C20.39128679 25.22420249 20.6596263 22.38859075 20.74609375 19.1796875 C20.77896484 18.20902344 20.81183594 17.23835938 20.84570312 16.23828125 C20.9071325 14.19673489 20.96439332 12.15505903 21.01757812 10.11328125 C21.05173828 9.14519531 21.08589844 8.17710938 21.12109375 7.1796875 C21.1461499 6.29394043 21.17120605 5.40819336 21.19702148 4.49560547 C21.5 2.3125 21.5 2.3125 23.5 0.3125 C26.5625 0.125 26.5625 0.125 29.5 0.3125 C30.5 1.3125 30.5 1.3125 30.61352539 4.73071289 C30.61336628 6.24886988 30.60767226 7.76703229 30.59765625 9.28515625 C30.5962413 10.08279892 30.59482635 10.88044159 30.59336853 11.70225525 C30.58775316 14.25987435 30.57519812 16.81740718 30.5625 19.375 C30.55748698 21.10481645 30.55292373 22.83463426 30.54882812 24.56445312 C30.53777875 28.81383553 30.52050386 33.06315312 30.5 37.3125 C28.68359375 38.375 28.68359375 38.375 26.5 39.3125 C25.530625 38.9825 24.56125 38.6525 23.5625 38.3125 C19.80621679 37.08595854 19.02368287 37.8023502 15.5 39.3125 C10.03260542 39.85027652 6.34575811 39.194078 1.359375 36.96875 C-2.50117008 33.52994514 -4.24796126 29.45978509 -4.84765625 24.35058594 C-4.96431641 21.03683405 -4.94772778 17.7523555 -4.875 14.4375 C-4.87371094 13.29796875 -4.87242187 12.1584375 -4.87109375 10.984375 C-4.76004348 0.59500544 -4.76004348 0.59500544 0 0 Z " fill="#5CA9FB" transform="translate(370.5,53.6875)"/>
<path d="M0 0 C3.64705141 1.72720103 5.35211965 2.7645076 7.64453125 6.203125 C7.26953125 8.890625 7.26953125 8.890625 6.64453125 11.203125 C4.39453125 11.890625 4.39453125 11.890625 1.64453125 12.203125 C-0.35546875 10.828125 -0.35546875 10.828125 -2.35546875 9.203125 C-5.72543305 8.19213571 -8.01558307 8.08982977 -11.35546875 9.203125 C-11.35546875 10.193125 -11.35546875 11.183125 -11.35546875 12.203125 C-10.23527344 12.60144531 -9.11507812 12.99976562 -7.9609375 13.41015625 C-6.48812156 13.94487286 -5.01547401 14.48005344 -3.54296875 15.015625 C-2.80498047 15.27666016 -2.06699219 15.53769531 -1.30664062 15.80664062 C-0.59443359 16.06767578 0.11777344 16.32871094 0.8515625 16.59765625 C1.50616455 16.83331299 2.1607666 17.06896973 2.83520508 17.31176758 C4.92241193 18.34002182 6.1556032 19.42019606 7.64453125 21.203125 C8.85096691 24.82243198 8.96721684 27.39543505 8.64453125 31.203125 C6.89099513 34.71019724 5.2752504 36.73008564 2.14453125 39.078125 C-4.25253983 41.13432642 -10.74173506 41.46331803 -16.85546875 38.515625 C-19.32240953 36.23370478 -21.38888146 33.92609201 -23.35546875 31.203125 C-22.69546875 29.553125 -22.03546875 27.903125 -21.35546875 26.203125 C-18.60546875 25.953125 -18.60546875 25.953125 -15.35546875 26.203125 C-14.02213542 27.53645833 -12.68880208 28.86979167 -11.35546875 30.203125 C-7.42015607 31.11667973 -4.20396188 31.58858253 -0.35546875 30.203125 C-0.35546875 28.553125 -0.35546875 26.903125 -0.35546875 25.203125 C-1.22429687 25.03296875 -2.093125 24.8628125 -2.98828125 24.6875 C-16.71748603 21.80037416 -16.71748603 21.80037416 -20.73046875 16.328125 C-22.03622767 11.88854467 -21.84694145 9.13146233 -19.66796875 5.015625 C-14.41454951 -1.37366867 -7.83279865 -2.64990203 0 0 Z " fill="#213166" transform="translate(195.35546875,52.796875)"/>
<path d="M0 0 C-0.33 0.99 -0.66 1.98 -1 3 C-5.46784051 4.11696013 -8.37824778 3.64611513 -12.77001953 2.48486328 C-26.46243605 -0.49227042 -40.91595035 2.13810917 -52.8125 9.25 C-64.97496812 17.57634082 -72.66700114 28.57837033 -76 43 C-76.93653664 48.97042108 -77.49167278 54.9803355 -78 61 C-78.99 61 -79.98 61 -81 61 C-83.75628602 58.24371398 -82.37333571 50.3373008 -82.3828125 46.63720703 C-82.26111807 38.78664838 -81.11682138 32.79176088 -77 26 C-76.07574219 24.44732422 -76.07574219 24.44732422 -75.1328125 22.86328125 C-65.68988077 7.92728223 -52.8350387 -1.29709934 -35.52734375 -5.6171875 C-23.1250052 -7.49574883 -11.24000153 -5.36454618 0 0 Z " fill="#7DCDFD" transform="translate(83,9)"/>
<path d="M0 0 C2.5 0.25 2.5 0.25 4.5 2.25 C4.6953125 4.6328125 4.6953125 4.6328125 4.625 7.375 C4.60695312 8.28507812 4.58890625 9.19515625 4.5703125 10.1328125 C4.54710937 10.83148438 4.52390625 11.53015625 4.5 12.25 C5.5725 12.1675 6.645 12.085 7.75 12 C11.5 12.25 11.5 12.25 14 14 C15.5 16.25 15.5 16.25 15.375 18.4375 C14.5 20.25 14.5 20.25 12.5 21.25 C9.86 21.25 7.22 21.25 4.5 21.25 C4.83 28.18 5.16 35.11 5.5 42.25 C7.15 42.58 8.8 42.91 10.5 43.25 C14.35714286 44.10714286 14.35714286 44.10714286 15.5 45.25 C15.8125 47.625 15.8125 47.625 15.5 50.25 C13.08741595 53.16520573 11.40794237 53.2603936 7.625 53.6875 C3.3340462 53.51938427 0.77981843 52.06127294 -2.5 49.25 C-4.5897322 46.00599859 -4.73590806 43.42535795 -4.6953125 39.609375 C-4.68886719 38.53945312 -4.68242187 37.46953125 -4.67578125 36.3671875 C-4.65902344 35.25601563 -4.64226562 34.14484375 -4.625 33 C-4.61597656 31.87335938 -4.60695312 30.74671875 -4.59765625 29.5859375 C-4.57410658 26.80707635 -4.5412168 24.0286461 -4.5 21.25 C-5.28375 21.29125 -6.0675 21.3325 -6.875 21.375 C-9.5 21.25 -9.5 21.25 -11.5 19.25 C-11.625 16.625 -11.625 16.625 -11.5 14.25 C-9.19 13.59 -6.88 12.93 -4.5 12.25 C-4.52320313 11.55132812 -4.54640625 10.85265625 -4.5703125 10.1328125 C-4.59738281 8.76769531 -4.59738281 8.76769531 -4.625 7.375 C-4.64820313 6.47007813 -4.67140625 5.56515625 -4.6953125 4.6328125 C-4.41286704 1.18697783 -3.40798164 0.34079816 0 0 Z " fill="#233368" transform="translate(216.5,39.75)"/>
<path d="M0 0 C0.66 0 1.32 0 2 0 C4.62589351 5.224505 5.42195616 9.24945091 4.9375 15.125 C4.85459717 16.2392334 4.85459717 16.2392334 4.77001953 17.37597656 C3.06325085 36.42466104 -6.40145123 51.78093434 -20.49609375 64.19921875 C-24.3825357 67.32541236 -28.29302549 70.24856762 -33 72 C-35.375 71.6875 -35.375 71.6875 -37 71 C-37 70.34 -37 69.68 -37 69 C-38.32 68.67 -39.64 68.34 -41 68 C-39.91460937 67.41992188 -38.82921875 66.83984375 -37.7109375 66.2421875 C-36.26532633 65.45367232 -34.82003049 64.66457883 -33.375 63.875 C-32.66214844 63.49601562 -31.94929688 63.11703125 -31.21484375 62.7265625 C-24.98579076 59.29772599 -20.14916476 55.54057296 -17 49 C-15.515 48.505 -15.515 48.505 -14 48 C-4.06785521 33.88697291 -1.39549287 19.72840049 -1.1418457 2.74316406 C-1 1 -1 1 0 0 Z " fill="#8A7FF5" transform="translate(103,39)"/>
<path d="M0 0 C2.4375 1.1875 2.4375 1.1875 4 3 C4.3125 5.625 4.3125 5.625 4 8 C1.91912532 10.08087468 -2.51574733 9.31788479 -5.3359375 9.42578125 C-8.06733434 9.75661294 -8.06733434 9.75661294 -9.63891602 11.68994141 C-11.29293419 14.49717368 -11.39619065 16.29073386 -11.44140625 19.53515625 C-11.46783203 20.59154297 -11.49425781 21.64792969 -11.52148438 22.73632812 C-11.53501953 23.83396484 -11.54855469 24.93160156 -11.5625 26.0625 C-11.59691808 28.24103729 -11.63951288 30.41946516 -11.69140625 32.59765625 C-11.70373291 33.56195557 -11.71605957 34.52625488 -11.72875977 35.51977539 C-12 38 -12 38 -14 41 C-16.5 41.3125 -16.5 41.3125 -19 41 C-21.54175722 38.45824278 -21.25724889 36.80431003 -21.30354309 33.3359375 C-21.30263168 32.56507812 -21.30172028 31.79421875 -21.30078125 31 C-21.30506638 30.20851563 -21.3093515 29.41703125 -21.31376648 28.6015625 C-21.31951298 26.92709307 -21.32000768 25.25259868 -21.31567383 23.578125 C-21.31251229 21.00998588 -21.3359731 18.4429967 -21.36132812 15.875 C-21.36360086 14.25000146 -21.36430473 12.62499981 -21.36328125 11 C-21.372491 10.22914062 -21.38170074 9.45828125 -21.39118958 8.6640625 C-21.37231445 6.5 -21.37231445 6.5 -21 3 C-18 1 -18 1 -15.125 1.5 C-9.95858907 2.32662575 -5.5284868 -0.50258971 0 0 Z " fill="#1E2F64" transform="translate(262,52)"/>
<path d="M0 0 C0.99 0 1.98 0 3 0 C3.15855469 0.68707031 3.31710938 1.37414063 3.48046875 2.08203125 C4.8015732 7.6746823 4.8015732 7.6746823 8.3125 12 C11.19201872 13.07144883 14.05852039 14.11071547 17 15 C16.8046875 16.93359375 16.8046875 16.93359375 16 19 C13.8203125 19.66015625 13.8203125 19.66015625 11.125 20.0625 C8.36928421 20.63213737 8.36928421 20.63213737 6 22 C4.20824858 25.55188369 3.51990796 29.07402833 3 33 C1.68 33 0.36 33 -1 33 C-1.17015625 32.38511719 -1.3403125 31.77023438 -1.515625 31.13671875 C-2.91049251 26.23873071 -2.91049251 26.23873071 -5.75 22.125 C-8.78665295 20.60667353 -11.85090982 19.27174796 -15 18 C-15 17.01 -15 16.02 -15 15 C-14.00419922 14.75830078 -14.00419922 14.75830078 -12.98828125 14.51171875 C-8.62635463 13.16811799 -5.78822949 12.20399889 -3.22265625 8.28515625 C-2.00926006 5.552377 -0.93058219 2.84072459 0 0 Z " fill="#F2B642" transform="translate(95,0)"/>
<path d="M0 0 C1.96070244 2.94105366 3.40987735 5.87212648 4.90234375 9.0625 C5.89784136 11.03450399 5.89784136 11.03450399 7.45019531 12.39501953 C10.06884889 15.10690179 11.29707614 18.4629909 12.8125 21.875 C13.14958984 22.58269531 13.48667969 23.29039063 13.83398438 24.01953125 C16.18035382 29.28049322 16.18035382 29.28049322 15.26171875 32.9453125 C14 35 14 35 13 36 C10.6875 36.4375 10.6875 36.4375 8 36 C4.00524579 31.43456662 3.55328152 28.21312608 2 22 C-5.92 22 -13.84 22 -22 22 C-22 21.67 -22 21.34 -22 21 C-12.1 20.505 -12.1 20.505 -2 20 C-7.61 19.67 -13.22 19.34 -19 19 C-19 18.67 -19 18.34 -19 18 C-15.04 18 -11.08 18 -7 18 C-7 17.01 -7 16.02 -7 15 C-5.02 14.34 -3.04 13.68 -1 13 C-1.391875 11.783125 -1.78375 10.56625 -2.1875 9.3125 C-3.05006155 5.96338172 -3.13503653 5.29462515 -1.625 2 C-1.08875 1.34 -0.5525 0.68 0 0 Z " fill="#2D3C6E" transform="translate(151,57)"/>
<path d="M0 0 C3.31541064 2.39838216 4.68360676 4.07059486 6 7.9375 C6 11.74306588 5.06497798 13.82878382 3 17 C2.01 17.33 1.02 17.66 0 18 C0.33 20.97 0.66 23.94 1 27 C-0.32 26.67 -1.64 26.34 -3 26 C-3.33 23.69 -3.66 21.38 -4 19 C-4.928125 18.9175 -5.85625 18.835 -6.8125 18.75 C-10 18 -10 18 -11.8125 16.3125 C-13.3081401 13.3999377 -13.8686128 11.28467995 -14 8 C-11.33168338 1.06237679 -7.43192375 -1.40525654 0 0 Z " fill="#6AB5FC" transform="translate(41,49)"/>
<path d="M0 0 C-0.33 0.99 -0.66 1.98 -1 3 C-5.47117695 4.11779424 -8.36850299 3.64013186 -12.76123047 2.47607422 C-16.60062432 1.65962733 -20.40170588 1.7056177 -24.3125 1.75 C-25.55447144 1.75580078 -25.55447144 1.75580078 -26.8215332 1.76171875 C-33.02855935 1.8490477 -38.9650761 2.4810978 -45 4 C-44.67 3.01 -44.34 2.02 -44 1 C-44.99 0.01 -45.98 -0.98 -47 -2 C-30.72149571 -7.54161848 -15.7721415 -7.52761299 0 0 Z " fill="#8886F3" transform="translate(83,9)"/>
<path d="M0 0 C0 0.66 0 1.32 0 2 C1.32 2.33 2.64 2.66 4 3 C2.43979133 3.65134925 0.87671421 4.29582964 -0.6875 4.9375 C-1.55761719 5.29714844 -2.42773438 5.65679687 -3.32421875 6.02734375 C-11.685935 9.06685813 -22.56559907 9.68072222 -30.9375 6.5 C-31.948125 6.005 -32.95875 5.51 -34 5 C-30.90279155 4.12159004 -29.09354597 4.00564594 -26 5 C-26 4.34 -26 3.68 -26 3 C-26.66 2.67 -27.32 2.34 -28 2 C-25.9192771 -0.0807229 -21.57112518 0.6279505 -18.6875 0.5 C-17.14957075 0.43073546 -15.61179608 0.35793055 -14.07421875 0.28125 C-13.38932373 0.25095703 -12.70442871 0.22066406 -11.9987793 0.18945312 C-9.97121191 0.05252084 -9.97121191 0.05252084 -7.94848633 -0.54492188 C-5.15196019 -1.19806368 -2.77998167 -0.56863261 0 0 Z " fill="#5B97F8" transform="translate(66,108)"/>
<path d="M0 0 C0.66 0 1.32 0 2 0 C4.62662318 5.22595677 5.41861146 9.24827757 4.9375 15.125 C4.88658203 15.85984619 4.83566406 16.59469238 4.78320312 17.35180664 C4.13923409 24.85746091 2.38677705 32.2264459 -1 39 C-1.66 38.67 -2.32 38.34 -3 38 C-2.34 36.35 -1.68 34.7 -1 33 C-2.98 33.495 -2.98 33.495 -5 34 C-4.54057672 30.86060757 -3.98497504 27.95410663 -2.99609375 24.93359375 C-1.62551448 20.22689995 -1.58205474 15.49755241 -1.4375 10.625 C-1.37785105 8.82537838 -1.31427002 7.02588125 -1.24609375 5.2265625 C-1.22216553 4.43846191 -1.1982373 3.65036133 -1.17358398 2.83837891 C-1 1 -1 1 0 0 Z " fill="#7AC0F9" transform="translate(103,39)"/>
<path d="M0 0 C0.85715607 0.00141495 1.71431213 0.0028299 2.59744263 0.00428772 C5.3176024 0.00985603 8.03767788 0.02240261 10.7578125 0.03515625 C12.60937381 0.04017535 14.46093641 0.04473754 16.3125 0.04882812 C20.83596965 0.05981508 25.35937682 0.07705773 29.8828125 0.09765625 C29.8828125 1.41765625 29.8828125 2.73765625 29.8828125 4.09765625 C15.3628125 4.09765625 0.8428125 4.09765625 -14.1171875 4.09765625 C-14.4471875 3.10765625 -14.7771875 2.11765625 -15.1171875 1.09765625 C-10.02526463 0.06279992 -5.16771409 -0.03244342 0 0 Z " fill="#63AAFA" transform="translate(388.1171875,118.90234375)"/>
<path d="M0 0 C1.26108078 0.0001133 1.26108078 0.0001133 2.54763794 0.00022888 C3.91020218 0.00797081 3.91020218 0.00797081 5.30029297 0.01586914 C6.22969696 0.01728409 7.15910095 0.01869904 8.1166687 0.02015686 C11.09197171 0.02576486 14.06720011 0.03831871 17.04248047 0.05102539 C19.0568023 0.05603936 21.07112531 0.06060245 23.08544922 0.06469727 C28.02948849 0.07573689 32.97347182 0.0930069 37.91748047 0.11352539 C37.91748047 1.43352539 37.91748047 2.75352539 37.91748047 4.11352539 C31.97265935 4.13819742 26.02786787 4.15637202 20.08300781 4.16845703 C18.05956503 4.1734937 16.03612591 4.18032328 14.01269531 4.18896484 C11.10855204 4.20105951 8.20445678 4.20676027 5.30029297 4.21118164 C4.39191681 4.21634293 3.48354065 4.22150421 2.54763794 4.2268219 C1.70691742 4.22689743 0.8661969 4.22697296 0 4.22705078 C-1.1125264 4.2303817 -1.1125264 4.2303817 -2.24752808 4.23377991 C-4.08251953 4.11352539 -4.08251953 4.11352539 -6.08251953 3.11352539 C-6.08251953 2.45352539 -6.08251953 1.79352539 -6.08251953 1.11352539 C-3.79620459 -0.02963208 -2.53904547 -0.00760193 0 0 Z " fill="#7ED1FC" transform="translate(146.08251953125,118.886474609375)"/>
<path d="M0 0 C-0.22265625 2.359375 -0.22265625 2.359375 -1 5 C-2.93359375 6.265625 -2.93359375 6.265625 -5.4375 7.25 C-10.78009449 9.65685032 -14.55652193 12.88944927 -18.7734375 16.9140625 C-20.76396548 18.77887292 -22.78581993 20.41266543 -25 22 C-24.67 21.21625 -24.34 20.4325 -24 19.625 C-22.88133489 17.15667503 -22.88133489 17.15667503 -23 15 C-23.99 15 -24.98 15 -26 15 C-19.81988701 7.03090693 -10.68926214 -2.42937776 0 0 Z " fill="#76BDFD" transform="translate(40,9)"/>
<path d="M0 0 C11.89992632 -0.47529292 22.20639481 0.84850661 33 6 C32.67 6.99 32.34 7.98 32 9 C26.7891013 10.24108155 22.75073497 9.65160282 17.625 8.5625 C16.88894531 8.41490234 16.15289062 8.26730469 15.39453125 8.11523438 C13.59443877 7.7528781 11.79692747 7.37773891 10 7 C10.99 6.67 11.98 6.34 13 6 C12.67 4.68 12.34 3.36 12 2 C8.04 1.67 4.08 1.34 0 1 C0 0.67 0 0.34 0 0 Z " fill="#8CCCF9" transform="translate(50,3)"/>
<path d="M0 0 C3.96 0 7.92 0 12 0 C12.33 0.99 12.66 1.98 13 3 C12.01 4.485 12.01 4.485 11 6 C11.30949651 9.30129606 12.53745474 10.8586563 15 13 C14.01 13.99 13.02 14.98 12 16 C10.35 14.68 8.7 13.36 7 12 C6.071875 12.680625 5.14375 13.36125 4.1875 14.0625 C3.135625 14.701875 2.08375 15.34125 1 16 C0.01 15.67 -0.98 15.34 -2 15 C-0.66195697 10.98587091 1.52415367 10.26994046 5 8 C5.66 7.01 6.32 6.02 7 5 C4.69 4.34 2.38 3.68 0 3 C0 2.01 0 1.02 0 0 Z " fill="#599CF9" transform="translate(234,114)"/>
<path d="M0 0 C4.95 0 9.9 0 15 0 C15.33 1.32 15.66 2.64 16 4 C14.25 6.75 14.25 6.75 12 9 C11.01 9 10.02 9 9 9 C7.39092892 11.37612865 7.39092892 11.37612865 6 14 C5.34 14.66 4.68 15.32 4 16 C3.01 16 2.02 16 1 16 C1 15.01 1 14.02 1 13 C1.99 12.34 2.98 11.68 4 11 C4.73343428 7.93443402 4.73343428 7.93443402 5 5 C2.525 4.01 2.525 4.01 0 3 C0 2.01 0 1.02 0 0 Z M8 3 C8.33 3.99 8.66 4.98 9 6 C9.99 5.01 10.98 4.02 12 3 C10.68 3 9.36 3 8 3 Z " fill="#569CF8" transform="translate(204,114)"/>
<path d="M0 0 C-0.20496094 0.94359375 -0.40992188 1.8871875 -0.62109375 2.859375 C-2.31122726 10.91379116 -3.55509336 18.76155627 -4 27 C-4.99 27 -5.98 27 -7 27 C-8 26 -8 26 -8.11352539 23.95874023 C-8.10828857 23.08419189 -8.10305176 22.20964355 -8.09765625 21.30859375 C-8.09443359 20.36435547 -8.09121094 19.42011719 -8.08789062 18.44726562 C-8.07951172 17.45404297 -8.07113281 16.46082031 -8.0625 15.4375 C-8.05798828 14.44041016 -8.05347656 13.44332031 -8.04882812 12.41601562 C-8.03700007 9.94395151 -8.02051849 7.47200482 -8 5 C-7.34 5 -6.68 5 -6 5 C-6 4.34 -6 3.68 -6 3 C-2.53846154 0 -2.53846154 0 0 0 Z " fill="#6FCAFC" transform="translate(9,43)"/>
<path d="M0 0 C0.99 0 1.98 0 3 0 C2.938125 1.0725 2.87625 2.145 2.8125 3.25 C3.00543309 7.10866187 3.39665076 8.28817788 6 11 C5.34 12.32 4.68 13.64 4 15 C3.443125 14.855625 2.88625 14.71125 2.3125 14.5625 C-0.04945411 13.95647335 -0.04945411 13.95647335 -2.6875 13.5625 C-3.450625 13.376875 -4.21375 13.19125 -5 13 C-5.33 12.34 -5.66 11.68 -6 11 C-6.99 10.67 -7.98 10.34 -9 10 C-8.34 10 -7.68 10 -7 10 C-6.9175 9.21625 -6.835 8.4325 -6.75 7.625 C-6 5 -6 5 -4.0625 3.875 C-3.381875 3.58625 -2.70125 3.2975 -2 3 C-1.34 2.01 -0.68 1.02 0 0 Z " fill="#7F87F7" transform="translate(66,69)"/>
<path d="M0 0 C0 0.99 0 1.98 0 3 C-0.99 3 -1.98 3 -3 3 C-3.061875 4.03125 -3.12375 5.0625 -3.1875 6.125 C-4.21654662 11.03276078 -5.35670107 12.59958767 -9 16 C-12.3125 16.875 -12.3125 16.875 -15 17 C-15 16.01 -15 15.02 -15 14 C-13 12.66666667 -11 11.33333333 -9 10 C-7.13689678 7.39975951 -7.13689678 7.39975951 -6 5 C-9.3 5 -12.6 5 -16 5 C-16.33 4.01 -16.66 3.02 -17 2 C-13.37 2 -9.74 2 -6 2 C-6 1.34 -6 0.68 -6 0 C-3 -1 -3 -1 0 0 Z " fill="#5595F7" transform="translate(358,113)"/>
<path d="M0 0 C-0.4640625 0.7734375 -0.4640625 0.7734375 -0.9375 1.5625 C-2.32854335 4.75371709 -2.81059531 7.52758063 -3 11 C-1.66621425 12.8354799 -1.66621425 12.8354799 0 14 C0 14.66 0 15.32 0 16 C1.65 16.33 3.3 16.66 5 17 C6.00496852 20.01490557 6.10335303 22.04181692 6.0625 25.1875 C6.05347656 26.08855469 6.04445313 26.98960938 6.03515625 27.91796875 C6.02355469 28.60503906 6.01195313 29.29210937 6 30 C4.35 30.33 2.7 30.66 1 31 C1.33 26.71 1.66 22.42 2 18 C-0.475 17.01 -0.475 17.01 -3 16 C-5.63590225 13.54588411 -5.97746954 12.17702501 -6.4375 8.5625 C-5.95870884 4.66377196 -4.62625795 0 0 0 Z " fill="#6DA6FA" transform="translate(64,39)"/>
<path d="M0 0 C4.95 0 9.9 0 15 0 C14 7 14 7 12.3125 9.375 C9.53421025 11.32731171 7.35122256 11.6953434 4 12 C3.67 11.01 3.34 10.02 3 9 C3.94875 8.566875 4.8975 8.13375 5.875 7.6875 C9.20041937 6.20697799 9.20041937 6.20697799 11 3 C10.01 3.33 9.02 3.66 8 4 C5.95703125 3.87890625 5.95703125 3.87890625 3.8125 3.5625 C2.554375 3.376875 1.29625 3.19125 0 3 C0 2.01 0 1.02 0 0 Z " fill="#5D98F7" transform="translate(289,118)"/>
<path d="M0 0 C0 0.66 0 1.32 0 2 C1.32 2.33 2.64 2.66 4 3 C2.25531628 3.70088156 0.50398839 4.38524009 -1.25 5.0625 C-2.22453125 5.44535156 -3.1990625 5.82820313 -4.203125 6.22265625 C-7.15977364 7.04440636 -8.16938886 6.91310037 -11 6 C-12.58211573 5.93451508 -14.16670081 5.91421619 -15.75 5.9375 C-16.94882812 5.95103516 -16.94882812 5.95103516 -18.171875 5.96484375 C-19.07679687 5.98224609 -19.07679687 5.98224609 -20 6 C-19.67 5.34 -19.34 4.68 -19 4 C-16.93359375 3.3671875 -16.93359375 3.3671875 -14.4375 2.875 C-13.61121094 2.70742187 -12.78492188 2.53984375 -11.93359375 2.3671875 C-10.97646484 2.18542969 -10.97646484 2.18542969 -10 2 C-10 1.34 -10 0.68 -10 0 C-6.42355152 -1.2380014 -3.66305234 -0.74926071 0 0 Z " fill="#6C95F8" transform="translate(66,108)"/>
<path d="M0 0 C0.99 0 1.98 0 3 0 C3.020625 0.7425 3.04125 1.485 3.0625 2.25 C4.14587926 5.42791249 4.74474412 5.72751232 7.5625 7.3125 C8.696875 7.869375 9.83125 8.42625 11 9 C11 9.66 11 10.32 11 11 C7.37673261 12.2077558 6.35853631 11.54311128 3 10 C3 11.98 3 13.96 3 16 C2.01 16.33 1.02 16.66 0 17 C-0.19436491 14.54203147 -0.3807742 12.08390706 -0.5625 9.625 C-0.61857422 8.92632812 -0.67464844 8.22765625 -0.73242188 7.5078125 C-1.11328125 2.2265625 -1.11328125 2.2265625 0 0 Z " fill="#3D85F1" transform="translate(265,113)"/>
<path d="M0 0 C0.33 0 0.66 0 1 0 C1.19257595 5.19574472 1.37124807 10.39171265 1.53710938 15.58837891 C1.59547094 17.35576154 1.65761527 19.1230235 1.72363281 20.89013672 C1.81792511 23.43174265 1.89855832 25.97347345 1.9765625 28.515625 C2.00875885 29.30430969 2.0409552 30.09299438 2.0741272 30.90557861 C2.17949032 34.77324177 2.22720219 37.73140976 0 41 C-1.54178816 37.91642369 -1.14203232 34.67190912 -1.1328125 31.2890625 C-1.13376923 30.52451752 -1.13472595 29.75997253 -1.13571167 28.97225952 C-1.1363927 27.3532503 -1.13454378 25.73423836 -1.13037109 24.11523438 C-1.12503637 21.64186422 -1.13031107 19.16867688 -1.13671875 16.6953125 C-1.13605767 15.12239543 -1.13477588 13.54947848 -1.1328125 11.9765625 C-1.13483673 11.23789948 -1.13686096 10.49923645 -1.13894653 9.7381897 C-1.12357079 6.35311987 -1.05962352 3.23569246 0 0 Z " fill="#4A9CF9" transform="translate(406,40)"/>
<path d="M0 0 C0.66 0 1.32 0 2 0 C5.1593541 5.58962648 5.06792818 8.85709207 3.54296875 15.05859375 C3.36378906 15.69925781 3.18460937 16.33992188 3 17 C1.68 16.67 0.36 16.34 -1 16 C-1.02685095 13.52076199 -1.04676547 11.0418116 -1.0625 8.5625 C-1.07506836 7.50192383 -1.07506836 7.50192383 -1.08789062 6.41992188 C-1.09653588 4.61306441 -1.05220011 2.80612397 -1 1 C-0.67 0.67 -0.34 0.34 0 0 Z " fill="#9DD6F9" transform="translate(103,39)"/>
<path d="M0 0 C1.32 0.33 2.64 0.66 4 1 C3.54300722 6.02692063 1.00758252 9.14896261 -2 13 C-3.32 12.34 -4.64 11.68 -6 11 C-4.54955729 6.89041233 -2.48889248 3.56741255 0 0 Z " fill="#F1B13B" transform="translate(430,20)"/>
<path d="M0 0 C2.475 0.495 2.475 0.495 5 1 C5 4.63 5 8.26 5 12 C3.35 12.33 1.7 12.66 0 13 C0 8.71 0 4.42 0 0 Z " fill="#F0AA36" transform="translate(413,15)"/>
<path d="M0 0 C7.875 0.875 7.875 0.875 9 2 C9.08726223 3.78071246 9.10699041 5.5648314 9.09765625 7.34765625 C9.09443359 8.42724609 9.09121094 9.50683594 9.08789062 10.61914062 C9.07951172 11.75544922 9.07113281 12.89175781 9.0625 14.0625 C9.05798828 15.20267578 9.05347656 16.34285156 9.04882812 17.51757812 C9.03699747 20.34510351 9.0205141 23.1725264 9 26 C8.34 26 7.68 26 7 26 C7 18.41 7 10.82 7 3 C5.35 3 3.7 3 2 3 C1.34 2.01 0.68 1.02 0 0 Z " fill="#0D1F58" transform="translate(205,58)"/>
<path d="M0 0 C0 0.99 0 1.98 0 3 C-1.40691607 3.72750788 -2.82606022 4.43140353 -4.25 5.125 C-5.03890625 5.51945312 -5.8278125 5.91390625 -6.640625 6.3203125 C-9 7 -9 7 -11.296875 6.1171875 C-11.85890625 5.74851562 -12.4209375 5.37984375 -13 5 C-12 2 -12 2 -8.75 0.25 C-5.07918075 -0.97360642 -3.58391038 -1.19463679 0 0 Z " fill="#F5B847" transform="translate(445,35)"/>
<path d="M0 0 C1.95292969 0.07250977 1.95292969 0.07250977 3.9453125 0.14648438 C5.32552554 0.20301019 6.70573382 0.25965233 8.0859375 0.31640625 C9.47393969 0.36962918 10.86196047 0.42236957 12.25 0.47460938 C15.65385891 0.60461788 19.05744867 0.73959508 22.4609375 0.87890625 C18.87425437 3.27002834 17.29697181 3.11271652 13.04296875 3.07421875 C11.78935547 3.06777344 10.53574219 3.06132813 9.24414062 3.0546875 C7.27864258 3.02955078 7.27864258 3.02955078 5.2734375 3.00390625 C3.93815763 2.99387264 2.60287061 2.98474745 1.26757812 2.9765625 C-2.00148265 2.95295917 -5.27018278 2.92003219 -8.5390625 2.87890625 C-8.5390625 2.21890625 -8.5390625 1.55890625 -8.5390625 0.87890625 C-5.64259228 -0.56932886 -3.22741333 -0.12629009 0 0 Z " fill="#549CF9" transform="translate(148.5390625,119.12109375)"/>
<path d="M0 0 C1.77155654 0.11429397 3.54226229 0.24183037 5.3125 0.375 C6.79169922 0.47941406 6.79169922 0.47941406 8.30078125 0.5859375 C11 1 11 1 14 3 C10.33708062 5.47785723 7.3890815 6.48964169 3 7 C2.67 6.34 2.34 5.68 2 5 C1.01 4.67 0.02 4.34 -1 4 C-0.67 2.68 -0.34 1.36 0 0 Z " fill="#81BBF9" transform="translate(49,79)"/>
<path d="M0 0 C0.763125 0.20625 1.52625 0.4125 2.3125 0.625 C1.9825 1.285 1.6525 1.945 1.3125 2.625 C-0.3375 2.625 -1.9875 2.625 -3.6875 2.625 C-3.6875 13.845 -3.6875 25.065 -3.6875 36.625 C-4.0175 36.625 -4.3475 36.625 -4.6875 36.625 C-4.90430147 31.67767396 -5.10120799 26.73011231 -5.27954102 21.78125 C-5.34305346 20.0971144 -5.41204266 18.41317621 -5.48657227 16.72949219 C-5.59263324 14.31215624 -5.67911189 11.89479922 -5.76171875 9.4765625 C-5.79907639 8.7213028 -5.83643402 7.96604309 -5.87492371 7.18789673 C-5.9362793 5.06494141 -5.9362793 5.06494141 -5.6875 1.625 C-2.6875 -0.375 -2.6875 -0.375 0 0 Z " fill="#12255C" transform="translate(246.6875,53.375)"/>
<path d="M0 0 C1.32 0.33 2.64 0.66 4 1 C3.54803755 2.60597325 3.08817673 4.20972508 2.625 5.8125 C2.36976563 6.70582031 2.11453125 7.59914063 1.8515625 8.51953125 C1 11 1 11 -1 14 C-1.99 14 -2.98 14 -4 14 C-3.21824485 9.15311808 -1.60155722 4.6233633 0 0 Z " fill="#5196F5" transform="translate(316,115)"/>
<path d="M0 0 C1.9609375 -0.328125 1.9609375 -0.328125 4.375 -0.25 C5.25671875 -0.22421875 6.1384375 -0.1984375 7.046875 -0.171875 C12.04090684 0.11878294 17.02068177 0.52089034 22 1 C22 1.33 22 1.66 22 2 C11.605 2.495 11.605 2.495 1 3 C0.67 4.32 0.34 5.64 0 7 C-0.66 5.68 -1.32 4.36 -2 3 C-1.34 2.01 -0.68 1.02 0 0 Z " fill="#50A1FB" transform="translate(324,66)"/>
<path d="M0 0 C0.99 0.33 1.98 0.66 3 1 C2.67 1.99 2.34 2.98 2 4 C-11.2 4 -24.4 4 -38 4 C-38 3.67 -38 3.34 -38 3 C-25.46 2.67 -12.92 2.34 0 2 C0 1.34 0 0.68 0 0 Z " fill="#96DAFE" transform="translate(416,119)"/>
<path d="M0 0 C0.33 0 0.66 0 1 0 C0.6083965 5.95507399 -0.37124595 10.62819824 -3 16 C-3.66 15.67 -4.32 15.34 -5 15 C-4.34 13.35 -3.68 11.7 -3 10 C-4.32 10.33 -5.64 10.66 -7 11 C-6.67 9.02 -6.34 7.04 -6 5 C-5.38125 4.9175 -4.7625 4.835 -4.125 4.75 C-1.81562433 4.18741541 -1.81562433 4.18741541 -0.75 1.9375 C-0.5025 1.298125 -0.255 0.65875 0 0 Z " fill="#7BA7F8" transform="translate(105,62)"/>
<path d="M0 0 C0.66 0.33 1.32 0.66 2 1 C1.67 1.99 1.34 2.98 1 4 C-12.86 4 -26.72 4 -41 4 C-41 3.67 -41 3.34 -41 3 C-27.47 2.67 -13.94 2.34 0 2 C0 1.34 0 0.68 0 0 Z " fill="#97C2FE" transform="translate(183,119)"/>
<path d="M0 0 C1.88671875 0.23046875 1.88671875 0.23046875 4 1 C5.08203125 2.92578125 5.08203125 2.92578125 5.8125 5.3125 C6.06644531 6.09238281 6.32039063 6.87226562 6.58203125 7.67578125 C7.02792519 10.15528491 6.79557487 11.63492369 6 14 C5.34 14 4.68 14 4 14 C3.32739649 12.23141309 2.66211605 10.46003984 2 8.6875 C1.62875 7.70136719 1.2575 6.71523437 0.875 5.69921875 C0 3 0 3 0 0 Z " fill="#4D91F5" transform="translate(322,115)"/>
<path d="M0 0 C2.22909871 -0.02714735 4.45829367 -0.04646254 6.6875 -0.0625 C7.92886719 -0.07410156 9.17023437 -0.08570313 10.44921875 -0.09765625 C13.46235454 -0.01478673 16.08275339 0.29160551 19 1 C18.67 2.98 18.34 4.96 18 7 C15.36 7 12.72 7 10 7 C10.99 6.67 11.98 6.34 13 6 C12.67 4.68 12.34 3.36 12 2 C8.04 1.67 4.08 1.34 0 1 C0 0.67 0 0.34 0 0 Z " fill="#8AADF8" transform="translate(50,3)"/>
<path d="M0 0 C0.33 0.66 0.66 1.32 1 2 C-1.51636411 6.19394018 -3.50770483 8.926633 -8 11 C-8.99 11 -9.98 11 -11 11 C-11 10.01 -11 9.02 -11 8 C-9.05017465 6.59431196 -7.04049422 5.2704964 -5 4 C-3.31916921 2.68456721 -1.6475884 1.35683751 0 0 Z " fill="#4488F6" transform="translate(354,119)"/>
<path d="M0 0 C0.78375 0.04125 1.5675 0.0825 2.375 0.125 C2.705 0.785 3.035 1.445 3.375 2.125 C2.75625 2.186875 2.1375 2.24875 1.5 2.3125 C-0.78987312 2.93075497 -0.78987312 2.93075497 -1.75 5.09375 C-2.95054473 9.25277995 -2.83829694 13.13472231 -2.75 17.4375 C-2.74097656 18.27345703 -2.73195313 19.10941406 -2.72265625 19.97070312 C-2.69920989 22.02225969 -2.66334266 24.07366777 -2.625 26.125 C-3.285 26.125 -3.945 26.125 -4.625 26.125 C-4.68285647 22.16672765 -4.71854717 18.2085633 -4.75 14.25 C-4.76675781 13.12207031 -4.78351563 11.99414062 -4.80078125 10.83203125 C-4.80722656 9.75566406 -4.81367188 8.67929687 -4.8203125 7.5703125 C-4.83078613 6.57531738 -4.84125977 5.58032227 -4.85205078 4.55517578 C-4.51996772 1.00081583 -3.54331043 0.16872907 0 0 Z " fill="#489EFB" transform="translate(370.625,53.875)"/>
<path d="M0 0 C0.66 0 1.32 0 2 0 C3.26237731 2.52475462 3.09856404 4.31200466 3.0625 7.125 C3.05347656 8.03507812 3.04445313 8.94515625 3.03515625 9.8828125 C3.02355469 10.58148438 3.01195313 11.28015625 3 12 C1.35 12.33 -0.3 12.66 -2 13 C-1.85915204 11.20793453 -1.71216299 9.41635083 -1.5625 7.625 C-1.48128906 6.62726562 -1.40007812 5.62953125 -1.31640625 4.6015625 C-1 2 -1 2 0 0 Z " fill="#70BBF8" transform="translate(67,57)"/>
<path d="M0 0 C1.32 1.32 2.64 2.64 4 4 C3.34 5.32 2.68 6.64 2 8 C-1.35595828 7.40072174 -3.37801226 6.15377564 -6 4 C-4.02 3.34 -2.04 2.68 0 2 C0 1.34 0 0.68 0 0 Z " fill="#8B7AF2" transform="translate(68,76)"/>
<path d="M0 0 C1.25683594 0.49113281 1.25683594 0.49113281 2.5390625 0.9921875 C6.3312931 2.09647136 9.43553543 2.19932952 13.375 2.125 C15.24285156 2.09792969 15.24285156 2.09792969 17.1484375 2.0703125 C18.08945312 2.04710938 19.03046875 2.02390625 20 2 C20.33 2.66 20.66 3.32 21 4 C15.21570289 5.92809904 9.05073901 5.77786652 3.375 3.625 C1 2 1 2 0 0 Z " fill="#4B9DFB" transform="translate(412,88)"/>
<path d="M0 0 C0 0.99 0 1.98 0 3 C1.98 3 3.96 3 6 3 C2.46588679 5.12046792 -0.94393835 5.53199289 -5 6 C-4.67 5.01 -4.34 4.02 -4 3 C-4.99 2.01 -5.98 1.02 -7 0 C-3.86650268 -1.04449911 -3.01031744 -0.93423645 0 0 Z " fill="#819DF9" transform="translate(43,7)"/>
<path d="M0 0 C0 4.53846154 0 4.53846154 -1 7 C-3.375 8.8125 -3.375 8.8125 -6 10 C-6.99 9.67 -7.98 9.34 -9 9 C-7.66073876 4.98221628 -5.50865531 4.21976152 -2 2 C-1.34 1.34 -0.68 0.68 0 0 Z " fill="#4A90F5" transform="translate(241,120)"/>
<path d="M0 0 C3.96 0 7.92 0 12 0 C12 0.99 12 1.98 12 3 C8.04 3 4.08 3 0 3 C0 2.01 0 1.02 0 0 Z " fill="#4A90F9" transform="translate(291,114)"/>
<path d="M0 0 C0.66 0.33 1.32 0.66 2 1 C3.13645703 4.75905018 3.14923583 6.60452505 1.75 10.3125 C0 13 0 13 -3 14 C-2.5359375 13.0409375 -2.5359375 13.0409375 -2.0625 12.0625 C-0.68064597 8.07950896 -0.3463457 4.18349151 0 0 Z " fill="#59AEFC" transform="translate(44,53)"/>
<path d="M0 0 C1 1 1 1 1.0625 3.5625 C1.041875 4.366875 1.02125 5.17125 1 6 C-0.98 6.99 -0.98 6.99 -3 8 C-3 7.34 -3 6.68 -3 6 C-2.34 6 -1.68 6 -1 6 C-1.66 4.68 -2.32 3.36 -3 2 C-4.65 2.33 -6.3 2.66 -8 3 C-8 2.01 -8 1.02 -8 0 C-4.95694001 -0.97812643 -3.0322553 -1.04560527 0 0 Z " fill="#13255D" transform="translate(231,84)"/>
<path d="M0 0 C1.32 0 2.64 0 4 0 C4 0.66 4 1.32 4 2 C3.01 2.33 2.02 2.66 1 3 C0.67 6.3 0.34 9.6 0 13 C-0.66 13 -1.32 13 -2 13 C-2.05391993 11.20866022 -2.09275571 9.41686101 -2.125 7.625 C-2.14820313 6.62726562 -2.17140625 5.62953125 -2.1953125 4.6015625 C-2 2 -2 2 0 0 Z " fill="#12245E" transform="translate(214,40)"/>
<path d="M0 0 C8.57142857 -0.28571429 8.57142857 -0.28571429 12 2 C11.67 2.66 11.34 3.32 11 4 C7.7 3.67 4.4 3.34 1 3 C0.67 2.01 0.34 1.02 0 0 Z " fill="#438CF5" transform="translate(341,115)"/>
<path d="M0 0 C0.66 0 1.32 0 2 0 C2.86604534 1.76505435 3.71748642 3.53728074 4.5625 5.3125 C5.27599609 6.79169922 5.27599609 6.79169922 6.00390625 8.30078125 C7 11 7 11 6 14 C3.52813545 11.03653214 2.33751639 8.45958311 1.3125 4.75 C1.06113281 3.85796875 0.80976563 2.9659375 0.55078125 2.046875 C0.36902344 1.37140625 0.18726563 0.6959375 0 0 Z " fill="#16275D" transform="translate(151,55)"/>
<path d="M0 0 C4.62 0 9.24 0 14 0 C14 0.99 14 1.98 14 3 C11.8535247 2.88655624 9.70779408 2.75893655 7.5625 2.625 C6.36753906 2.55539063 5.17257812 2.48578125 3.94140625 2.4140625 C2.97074219 2.27742188 2.00007813 2.14078125 1 2 C0.67 1.34 0.34 0.68 0 0 Z " fill="#488CF3" transform="translate(290,118)"/>
<path d="M0 0 C-0.33 0.99 -0.66 1.98 -1 3 C-4.01490557 4.00496852 -6.04181692 4.10335303 -9.1875 4.0625 C-10.53908203 4.04896484 -10.53908203 4.04896484 -11.91796875 4.03515625 C-12.60503906 4.02355469 -13.29210937 4.01195313 -14 4 C-13.67 3.34 -13.34 2.68 -13 2 C-10.56640625 1.3671875 -10.56640625 1.3671875 -7.5625 0.875 C-6.07943359 0.62363281 -6.07943359 0.62363281 -4.56640625 0.3671875 C-2 0 -2 0 0 0 Z " fill="#0E1D55" transform="translate(297,89)"/>
<path d="M0 0 C1.2065625 0.0309375 1.2065625 0.0309375 2.4375 0.0625 C2.7675 1.7125 3.0975 3.3625 3.4375 5.0625 C1.1275 4.7325 -1.1825 4.4025 -3.5625 4.0625 C-3.5625 0.08689024 -3.5625 0.08689024 0 0 Z " fill="#6AA6FA" transform="translate(36.5625,107.9375)"/>
<path d="M0 0 C4.92127034 -0.16682272 8.50343896 -0.24828052 13 2 C12.67 2.66 12.34 3.32 12 4 C3.42857143 3.28571429 3.42857143 3.28571429 0 0 Z " fill="#11215B" transform="translate(185,52)"/>
<path d="M0 0 C2.31 0.66 4.62 1.32 7 2 C4 4 4 4 2 5 C2.33 5.66 2.66 6.32 3 7 C1.68 7 0.36 7 -1 7 C-1.625 5.1875 -1.625 5.1875 -2 3 C-1.34 2.01 -0.68 1.02 0 0 Z " fill="#85C3F7" transform="translate(69,4)"/>
<path d="M0 0 C0 3 0 3 -1.4375 5.3125 C-3.15321951 8.26353756 -3.6087048 10.63486125 -4 14 C-4.66 14 -5.32 14 -6 14 C-5.66290194 7.48277089 -4.55774263 4.67460782 0 0 Z " fill="#0E2055" transform="translate(281,61)"/>
<path d="M0 0 C6.26079448 -0.43177893 9.09075703 0.07260562 14 4 C13.67 4.66 13.34 5.32 13 6 C11.7315625 5.319375 11.7315625 5.319375 10.4375 4.625 C6.93953355 2.97141586 3.73040305 1.96990479 0 1 C0 0.67 0 0.34 0 0 Z " fill="#11215A" transform="translate(284,59)"/>
<path d="M0 0 C1.32 0.33 2.64 0.66 4 1 C1.525 4.465 1.525 4.465 -1 8 C-1.99 7.67 -2.98 7.34 -4 7 C-2.68 4.69 -1.36 2.38 0 0 Z " fill="#F4BD51" transform="translate(429,25)"/>
<path d="M0 0 C0.66 0 1.32 0 2 0 C1.71125 0.515625 1.4225 1.03125 1.125 1.5625 C-0.28780027 4.62356725 -1.1248517 7.74944918 -2 11 C-2.66 11 -3.32 11 -4 11 C-4.35858439 7.14521782 -4.2754818 5.42240542 -2.125 2.125 C-1.42375 1.42375 -0.7225 0.7225 0 0 Z " fill="#5A99F9" transform="translate(62,39)"/>
<path d="M0 0 C1.60379341 -0.05416188 3.20811406 -0.09286638 4.8125 -0.125 C5.70582031 -0.14820312 6.59914063 -0.17140625 7.51953125 -0.1953125 C10 0 10 0 13 2 C11.02 2.99 9.04 3.98 7 5 C6.67 4.01 6.34 3.02 6 2 C3.03 1.505 3.03 1.505 0 1 C0 0.67 0 0.34 0 0 Z " fill="#72A4F9" transform="translate(50,80)"/>
<path d="M0 0 C3.32820054 -0.22692276 5.41801336 -0.32162419 8.375 1.3125 C10 3 10 3 10 6 C9.34 6 8.68 6 8 6 C7.67 5.34 7.34 4.68 7 4 C4.69034152 2.94647157 2.3570226 1.94280904 0 1 C0 0.67 0 0.34 0 0 Z " fill="#12245F" transform="translate(256,52)"/>
<path d="M0 0 C3.63 0 7.26 0 11 0 C8.60236815 2.39763185 7.66726502 2.34280586 4.375 2.625 C3.55773437 2.69976562 2.74046875 2.77453125 1.8984375 2.8515625 C1.27195313 2.90054688 0.64546875 2.94953125 0 3 C0 2.01 0 1.02 0 0 Z " fill="#4B8FF4" transform="translate(234,114)"/>
<path d="M0 0 C0.33 0 0.66 0 1 0 C1.33 1.98 1.66 3.96 2 6 C0.35 6.33 -1.3 6.66 -3 7 C-2.25 2.25 -2.25 2.25 0 0 Z " fill="#6C8EF8" transform="translate(40,79)"/>
<path d="M0 0 C2.64 0 5.28 0 8 0 C8 0.66 8 1.32 8 2 C5.04335481 3.4783226 2.25770263 3.06032783 -1 3 C-0.67 2.01 -0.34 1.02 0 0 Z " fill="#53A2FD" transform="translate(326,59)"/>
<path d="M0 0 C0.33 0.66 0.66 1.32 1 2 C1.66 2 2.32 2 3 2 C3.99 4.97 4.98 7.94 6 11 C5.34 11 4.68 11 4 11 C3.32591692 9.73308493 2.66099503 8.46129251 2 7.1875 C1.62875 6.47980469 1.2575 5.77210937 0.875 5.04296875 C0 3 0 3 0 0 Z " fill="#15295E" transform="translate(146,43)"/>
<path d="M0 0 C0.99 0.33 1.98 0.66 3 1 C3.33 1.99 3.66 2.98 4 4 C2.02 4.99 2.02 4.99 0 6 C-0.66 4.68 -1.32 3.36 -2 2 C-1.34 1.34 -0.68 0.68 0 0 Z " fill="#569CF9" transform="translate(368,118)"/>
<path d="M0 0 C0 0.66 0 1.32 0 2 C-3.62326739 3.2077558 -4.64146369 2.54311128 -8 1 C-8 0.34 -8 -0.32 -8 -1 C-4.59745511 -2.2151946 -3.06748874 -1.86240388 0 0 Z " fill="#66A1F7" transform="translate(276,122)"/>
<path d="M0 0 C0.99 0.33 1.98 0.66 3 1 C3 2.32 3 3.64 3 5 C2.01 5.33 1.02 5.66 0 6 C-0.66 5.67 -1.32 5.34 -2 5 C-2 3.68 -2 2.36 -2 1 C-1.34 0.67 -0.68 0.34 0 0 Z " fill="#5CA4FA" transform="translate(188,118)"/>
<path d="M0 0 C2.05078125 0.03255208 4.1015625 0.06510417 6.15234375 0.09765625 C6.15234375 0.75765625 6.15234375 1.41765625 6.15234375 2.09765625 C2.77734375 2.72265625 2.77734375 2.72265625 -0.84765625 3.09765625 C-1.50765625 2.43765625 -2.16765625 1.77765625 -2.84765625 1.09765625 C-1.84765625 0.09765625 -1.84765625 0.09765625 0 0 Z " fill="#52A3FB" transform="translate(422.84765625,83.90234375)"/>
<path d="M0 0 C-0.556875 0.226875 -1.11375 0.45375 -1.6875 0.6875 C-4.63246684 2.35896766 -6.68156544 4.55276352 -9 7 C-9.33 6.34 -9.66 5.68 -10 5 C-5 -1.5 -5 -1.5 0 0 Z " fill="#17275F" transform="translate(185,54)"/>
<path d="M0 0 C0.33 1.32 0.66 2.64 1 4 C0.34 4 -0.32 4 -1 4 C-1 4.99 -1 5.98 -1 7 C-2.32 6.34 -3.64 5.68 -5 5 C-4 2 -4 2 -1.9375 0.8125 C-1.298125 0.544375 -0.65875 0.27625 0 0 Z " fill="#F7C15A" transform="translate(437,35)"/>
<path d="M0 0 C0.33 0.66 0.66 1.32 1 2 C-1.65654657 5.73884332 -3.58110387 7.64978174 -8 9 C-6.86280581 5.58841744 -5.95657056 4.88145399 -3 3 C-2.34 3 -1.68 3 -1 3 C-0.67 2.01 -0.34 1.02 0 0 Z " fill="#11255D" transform="translate(299,77)"/>
<path d="M0 0 C0.33 0.99 0.66 1.98 1 3 C-0.28965176 4.37562854 -1.62689293 5.70766393 -3 7 C-3.66 7 -4.32 7 -5 7 C-4.75 4.625 -4.75 4.625 -4 2 C-1.9375 0.6875 -1.9375 0.6875 0 0 Z " fill="#9480F7" transform="translate(64,72)"/>
<path d="M0 0 C0.66 0 1.32 0 2 0 C1.46930939 3.82097239 0.50298434 6.06171403 -2 9 C-3 6 -3 6 -1.5625 2.8125 C-1.046875 1.884375 -0.53125 0.95625 0 0 Z " fill="#16285E" transform="translate(122,64)"/>
<path d="M0 0 C0.99 0.33 1.98 0.66 3 1 C2.67 2.65 2.34 4.3 2 6 C0.35 6.33 -1.3 6.66 -3 7 C-3 6.01 -3 5.02 -3 4 C-2.01 4 -1.02 4 0 4 C0 2.68 0 1.36 0 0 Z " fill="#102058" transform="translate(200,58)"/>
<path d="M0 0 C1.53202706 0.25195908 3.05257128 0.57596777 4.5625 0.9375 C5.38878906 1.13214844 6.21507812 1.32679687 7.06640625 1.52734375 C8.02353516 1.76130859 8.02353516 1.76130859 9 2 C9 2.66 9 3.32 9 4 C2.47692308 4.36923077 2.47692308 4.36923077 0.0625 2.5 C-0.4634375 1.7575 -0.4634375 1.7575 -1 1 C-0.67 0.67 -0.34 0.34 0 0 Z " fill="#4B98FB" transform="translate(15,109)"/>
<path d="M0 0 C0.66 0 1.32 0 2 0 C1.34 2.97 0.68 5.94 0 9 C-0.66 9 -1.32 9 -2 9 C-1.125 2.25 -1.125 2.25 0 0 Z " fill="#192960" transform="translate(114,82)"/>
<path d="M0 0 C0.33 0.99 0.66 1.98 1 3 C2.65 3.33 4.3 3.66 6 4 C6 4.33 6 4.66 6 5 C2.37 5 -1.26 5 -5 5 C-5.33 4.34 -5.66 3.68 -6 3 C-4.02 3 -2.04 3 0 3 C0 2.01 0 1.02 0 0 Z " fill="#73A6F9" transform="translate(47,80)"/>
<path d="M0 0 C0.99 0.99 1.98 1.98 3 3 C2.67 3.99 2.34 4.98 2 6 C0.68 5.67 -0.64 5.34 -2 5 C-2 4.01 -2 3.02 -2 2 C-1.34 2 -0.68 2 0 2 C0 1.34 0 0.68 0 0 Z " fill="#9F81F7" transform="translate(68,76)"/>
<path d="M0 0 C0.66 0 1.32 0 2 0 C2.33 0.99 2.66 1.98 3 3 C4.99665314 4.68538601 4.99665314 4.68538601 7 6 C6.01 6.33 5.02 6.66 4 7 C1.8125 5.8125 1.8125 5.8125 0 4 C0 2.68 0 1.36 0 0 Z " fill="#15265B" transform="translate(181,62)"/>
<path d="M0 0 C0.66 0 1.32 0 2 0 C0.87553409 3.37339774 -0.44589873 4.60069275 -3 7 C-3.66 7.66 -4.32 8.32 -5 9 C-5.33 8.34 -5.66 7.68 -6 7 C-5.04882866 5.8274869 -4.08882991 4.66212985 -3.125 3.5 C-2.59132813 2.8503125 -2.05765625 2.200625 -1.5078125 1.53125 C-0.76144531 0.77328125 -0.76144531 0.77328125 0 0 Z " fill="#0C205A" transform="translate(277,55)"/>
<path d="M0 0 C0.598125 0.226875 1.19625 0.45375 1.8125 0.6875 C-0.1875 2.6875 -2.1875 4.6875 -4.1875 6.6875 C-4.875 4.875 -4.875 4.875 -5.1875 2.6875 C-3.58493056 0.24147296 -2.95482043 -0.4221172 0 0 Z " fill="#13255E" transform="translate(139.1875,32.3125)"/>
<path d="M0 0 C0.99 0 1.98 0 3 0 C3 0.66 3 1.32 3 2 C3.66 2 4.32 2 5 2 C4.67 3.32 4.34 4.64 4 6 C3.34 6 2.68 6 2 6 C1.34 4.02 0.68 2.04 0 0 Z " fill="#5C9CF9" transform="translate(324,123)"/>
<path d="M0 0 C1.65 0 3.3 0 5 0 C5.33 0.66 5.66 1.32 6 2 C5.38125 2.061875 4.7625 2.12375 4.125 2.1875 C1.72238859 2.828919 1.72238859 2.828919 0.75 5.5625 C0.5025 6.366875 0.255 7.17125 0 8 C-0.33 8 -0.66 8 -1 8 C-0.67 5.36 -0.34 2.72 0 0 Z " fill="#53A5FB" transform="translate(368,54)"/>
<path d="M0 0 C2.375 0.3125 2.375 0.3125 5 1 C5.66 1.99 6.32 2.98 7 4 C4.69 3.67 2.38 3.34 0 3 C0 2.01 0 1.02 0 0 Z " fill="#304170" transform="translate(302,89)"/>
<path d="M0 0 C1.32 0.33 2.64 0.66 4 1 C4 3.31 4 5.62 4 8 C2.68 7.67 1.36 7.34 0 7 C0.66 6.67 1.32 6.34 2 6 C1.49396008 3.83125748 1.00016187 2.00032373 0 0 Z " fill="#102158" transform="translate(306,84)"/>
</svg>
