<?xml version="1.0" encoding="UTF-8"?>
<svg version="1.1" xmlns="http://www.w3.org/2000/svg" width="468" height="499">
<path d="M0 0 C6.71927874 5.09738388 7.42212889 13.21436887 8.9375 21 C9.13076874 21.97555847 9.13076874 21.97555847 9.32794189 22.9708252 C19.27314756 73.32508554 13.79175372 124.12676485 -6.1875 171.375 C-6.62320312 172.47199219 -7.05890625 173.56898438 -7.5078125 174.69921875 C-12.97362024 188.14510578 -19.88141504 201.60966516 -28.65234375 213.20703125 C-30.34143185 215.51223465 -30.34143185 215.51223465 -32.0703125 218.73046875 C-34.11195491 222.35935627 -36.52612456 225.62830408 -39.125 228.875 C-39.60098633 229.47320557 -40.07697266 230.07141113 -40.56738281 230.68774414 C-65.44121294 261.69942963 -65.44121294 261.69942963 -80.1875 272.375 C-80.8475 272.375 -81.5075 272.375 -82.1875 272.375 C-82.1875 273.035 -82.1875 273.695 -82.1875 274.375 C-83.55078125 275.6015625 -83.55078125 275.6015625 -85.5 277 C-86.23089844 277.52980469 -86.96179688 278.05960937 -87.71484375 278.60546875 C-88.53082031 279.18941406 -89.34679687 279.77335937 -90.1875 280.375 C-91.97918142 281.68747985 -93.77084746 282.99998071 -95.5625 284.3125 C-97.43668279 285.66779747 -99.31166902 287.02198466 -101.1875 288.375 C-102.02539062 288.98730469 -102.86328125 289.59960938 -103.7265625 290.23046875 C-109.63685262 294.48024879 -115.71764234 298.046246 -122.1875 301.375 C-122.77805176 301.68050781 -123.36860352 301.98601562 -123.97705078 302.30078125 C-128.6817688 304.72621739 -133.42239644 307.07070513 -138.1875 309.375 C-138.80157715 309.6755127 -139.4156543 309.97602539 -140.04833984 310.28564453 C-164.10415952 321.92681531 -191.82620933 329.36496452 -218.62890625 329.61328125 C-219.50602264 329.6230751 -220.38313904 329.63286896 -221.28683472 329.64295959 C-254.57932583 329.93834631 -287.4162703 326.89538907 -317.06640625 310.1953125 C-319.64328391 309.19872998 -320.64864054 309.35537772 -323.1875 310.375 C-324.40093859 311.12630496 -325.5877943 311.92164605 -326.75 312.75 C-336.81509131 319.1331921 -348.74290514 319.73839517 -360.30859375 317.87109375 C-366.32765301 316.41015704 -371.23648189 314.07246246 -376.1875 310.375 C-377.09628906 309.71177734 -377.09628906 309.71177734 -378.0234375 309.03515625 C-387.32277671 301.70532775 -391.38192925 291.99197976 -393 280.5 C-393.89864638 268.55549183 -390.32601707 256.50069946 -382.80859375 247.18359375 C-374.69409206 238.13054728 -364.41848119 233.07640427 -352.30859375 232.15625 C-345.40467309 231.94463557 -339.60326163 232.83757659 -333.1875 235.375 C-332.36507812 235.69210937 -331.54265625 236.00921875 -330.6953125 236.3359375 C-319.54935671 241.23182462 -312.93605802 249.46479276 -308.24609375 260.4921875 C-306.86068735 264.26499164 -306.05935606 267.46000001 -306.08984375 271.484375 C-306.09467773 272.61552734 -306.09467773 272.61552734 -306.09960938 273.76953125 C-306.11217773 274.93548828 -306.11217773 274.93548828 -306.125 276.125 C-306.12951172 276.91777344 -306.13402344 277.71054687 -306.13867188 278.52734375 C-306.15041435 280.47659508 -306.16834854 282.42580738 -306.1875 284.375 C-298.00762334 288.77677707 -289.919871 292.05365011 -281 294.625 C-279.81962158 294.96926025 -278.63924316 295.31352051 -277.4230957 295.66821289 C-268.3065178 298.24009867 -259.63574077 299.78821452 -250.1875 300.375 C-248.98351562 300.48199219 -247.77953125 300.58898437 -246.5390625 300.69921875 C-193.76511962 305.1844214 -142.45031243 286.59517068 -102.078125 252.7734375 C-100.1875 251.375 -100.1875 251.375 -98.1875 251.375 C-98.1875 250.715 -98.1875 250.055 -98.1875 249.375 C-96.54296875 247.68359375 -96.54296875 247.68359375 -94.375 245.8125 C-93.66730469 245.19246094 -92.95960938 244.57242188 -92.23046875 243.93359375 C-90.1875 242.375 -90.1875 242.375 -87.1875 241.375 C-86.754375 240.50875 -86.754375 240.50875 -86.3125 239.625 C-84.79137378 236.58274755 -82.70036104 234.63657493 -80.1875 232.375 C-79.5275 232.375 -78.8675 232.375 -78.1875 232.375 C-77.82978516 231.53388672 -77.82978516 231.53388672 -77.46484375 230.67578125 C-75.90490925 227.86599098 -73.97654482 225.88166908 -71.75 223.5625 C-62.69363247 213.76016 -55.09430934 202.77647919 -48.1875 191.375 C-47.81802246 190.78058105 -47.44854492 190.18616211 -47.06787109 189.57373047 C-33.65143491 167.96586567 -23.89194475 144.31954931 -17.8125 119.625 C-17.45442261 118.19087769 -17.45442261 118.19087769 -17.08911133 116.7277832 C-13.52846498 101.43310085 -12.8094549 85.95858194 -12.875 70.3125 C-12.87582581 69.47103424 -12.87665161 68.62956848 -12.87750244 67.76260376 C-12.91566851 50.76926285 -14.24948732 34.20972102 -17.77050781 17.55297852 C-18.69849805 12.70602248 -18.7930704 9.54128374 -16.5 5.125 C-11.82190676 -0.43813791 -7.16712433 -2.04774981 0 0 Z " fill="#7BA9FC" transform="translate(430.1875,169.625)"/>
<path d="M0 0 C8.65945483 6.02469823 14.68220045 13.62838718 17.765625 23.71484375 C17.95511719 24.3078125 18.14460937 24.90078125 18.33984375 25.51171875 C20.45833187 36.47343709 19.3840016 48.01495589 13.765625 57.71484375 C8.04264139 65.55154256 1.31428115 72.47717907 -8.5 74.33203125 C-9.40234375 74.45835937 -10.3046875 74.5846875 -11.234375 74.71484375 C-11.09 75.46765625 -10.945625 76.22046875 -10.796875 76.99609375 C-7.24017585 97.34831669 -8.89451716 118.97630024 -16.42822266 138.28637695 C-18.47136598 143.85887142 -18.44519831 148.14734794 -16.234375 153.71484375 C-14.73831941 155.74050009 -14.73831941 155.74050009 -12.796875 156.90234375 C-9.39963186 159.47858647 -7.6667377 161.5862689 -6.234375 165.71484375 C-5.70270876 170.76567304 -6.16449537 173.6582171 -9.234375 177.71484375 C-11.74397188 180.62921432 -13.37526142 182.28605335 -17.234375 182.71484375 C-23.73642691 183.13433097 -27.92415036 182.47336428 -33.109375 178.15234375 C-34.234375 176.71484375 -34.234375 176.71484375 -34.234375 174.71484375 C-38.88174174 176.08171632 -42.66102471 178.02091304 -46.796875 180.52734375 C-58.53870751 187.45904125 -69.4016109 190.89328857 -82.984375 190.90234375 C-83.93570313 190.91458984 -84.88703125 190.92683594 -85.8671875 190.93945312 C-93.91364099 190.95598693 -101.09643075 189.83647014 -108.546875 186.71484375 C-109.34738281 186.38484375 -110.14789063 186.05484375 -110.97265625 185.71484375 C-113.234375 184.71484375 -113.234375 184.71484375 -115.33984375 183.5546875 C-117.35996649 182.44502935 -117.35996649 182.44502935 -120.234375 183.27734375 C-123.35738184 184.50506863 -123.35738184 184.50506863 -125.171875 187.15234375 C-127.90417967 190.54702531 -130.06455557 191.48440523 -134.234375 192.71484375 C-140.2759606 192.97797901 -144.5166088 191.62713767 -149.234375 187.71484375 C-152.37080593 183.01019736 -152.17164122 178.2065295 -151.234375 172.71484375 C-149.32165095 169.52364096 -147.01188881 167.16559123 -144.234375 164.71484375 C-141.81943727 162.29990602 -141.54192246 161.07802407 -141.234375 157.71484375 C-142.01433253 155.49528511 -142.01433253 155.49528511 -143.359375 153.33984375 C-148.99942052 142.76672221 -151.89237444 131.59255016 -153.234375 119.71484375 C-153.86601562 119.65167969 -154.49765625 119.58851563 -155.1484375 119.5234375 C-166.59848152 117.95606836 -177.34483693 113.29035758 -184.62109375 104.09765625 C-191.54979481 93.86398157 -194.65721629 83.00516043 -192.76953125 70.6796875 C-190.61633936 59.78632023 -186.01694018 50.7229723 -177.234375 43.71484375 C-169.15363668 38.36171927 -161.15183188 35.14635349 -151.421875 35.27734375 C-150.63578857 35.28419189 -149.84970215 35.29104004 -149.03979492 35.2980957 C-139.40706535 35.56239935 -131.61027547 38.48630558 -124.234375 44.71484375 C-124.234375 45.37484375 -124.234375 46.03484375 -124.234375 46.71484375 C-123.6465625 46.95847656 -123.05875 47.20210937 -122.453125 47.453125 C-115.84160899 51.21284273 -112.80489021 59.08249066 -110.734375 66.02734375 C-107.89116688 78.13233282 -109.35559862 90.5676162 -115.734375 101.33984375 C-119.8203827 107.13867286 -125.91471235 111.55501242 -132.234375 114.71484375 C-131.458945 124.21386123 -129.41065687 135.62917629 -124.234375 143.71484375 C-121.9687341 144.67732775 -121.9687341 144.67732775 -119.421875 144.77734375 C-114.33966122 145.55410131 -111.7226567 146.7282361 -108.234375 150.71484375 C-107.634559 152.38944318 -107.07473381 154.07868911 -106.546875 155.77734375 C-105.45697359 158.6794225 -104.7309335 160.32454877 -102.28125 162.25 C-91.22332316 167.100883 -75.74220125 166.57072069 -64.609375 162.27734375 C-62.80657983 161.44692235 -61.01199804 160.59786497 -59.234375 159.71484375 C-58.244375 159.38484375 -57.254375 159.05484375 -56.234375 158.71484375 C-56.316875 157.72484375 -56.399375 156.73484375 -56.484375 155.71484375 C-56.484375 150.0987039 -53.8213546 145.67211859 -50.359375 141.40234375 C-46.3789124 138.24138815 -43.3493551 136.71484375 -38.234375 136.71484375 C-36.06480467 130.6160012 -34.40222408 124.55497565 -33.109375 118.21484375 C-32.94050781 117.42464844 -32.77164063 116.63445312 -32.59765625 115.8203125 C-29.77765593 102.25322433 -30.21963927 89.46813695 -31.234375 75.71484375 C-32.14703125 75.58078125 -33.0596875 75.44671875 -34 75.30859375 C-42.7158387 73.70858471 -49.46494344 68.26165002 -55.234375 61.71484375 C-62.97410784 50.45577587 -64.44240307 39.19414593 -62.671875 25.83984375 C-61.39727575 20.08247029 -58.57195645 15.51152494 -55.234375 10.71484375 C-54.656875 9.82796875 -54.079375 8.94109375 -53.484375 8.02734375 C-39.2943669 -6.55683124 -17.85183866 -10.26792818 0 0 Z " fill="#7D9EFC" transform="translate(304.234375,182.28515625)"/>
<path d="M0 0 C1.12873535 0.38260986 1.12873535 0.38260986 2.28027344 0.77294922 C30.31884449 10.31884449 30.31884449 10.31884449 37 17 C37.6181228 20.07872703 37.60075869 22.9190449 37 26 C32.50770204 30.49229796 25.93002621 32.01777214 20 34 C19.03964844 34.4125 18.07929688 34.825 17.08984375 35.25 C13.03159833 36.23506083 10.94223338 35.34938294 7.0625 33.875 C5.73179661 33.39215797 4.39971977 32.91308702 3.06640625 32.4375 C2.05344482 32.07205078 2.05344482 32.07205078 1.02001953 31.69921875 C-22.2238069 23.65349493 -47.50095342 20.9626303 -72 22 C-72.85996582 22.03577148 -73.71993164 22.07154297 -74.60595703 22.10839844 C-130.42717053 24.83235436 -181.08876863 51.7494186 -219 92 C-219.33 92.66 -219.66 93.32 -220 94 C-220.66 94 -221.32 94 -222 94 C-222.22816406 94.53238281 -222.45632812 95.06476563 -222.69140625 95.61328125 C-224.41936255 98.76486722 -226.67063525 101.41706211 -228.9375 104.1875 C-237.81107992 115.26358434 -245.6501865 127.300373 -252 140 C-252.3697998 140.73702148 -252.73959961 141.47404297 -253.12060547 142.23339844 C-258.9310645 153.89061769 -264.18797359 165.53395438 -268 178 C-268.21994629 178.71236816 -268.43989258 179.42473633 -268.66650391 180.15869141 C-270.34612763 185.72252202 -271.73886952 191.32755121 -273 197 C-273.19899902 197.8751123 -273.39799805 198.75022461 -273.60302734 199.65185547 C-277.44079737 217.35714505 -277.3180907 234.85580093 -276.94067383 252.87841797 C-276.92538635 253.83877457 -276.91009888 254.79913116 -276.89434814 255.78858948 C-276.86398883 257.60490022 -276.82062997 259.42105631 -276.762146 261.23667908 C-276.68636086 266.02071873 -276.88128717 269.10648715 -280 273 C-282.65499724 275.08606926 -284.06750504 274.99879455 -287.5 274.9375 C-291.85965385 273.76973557 -292.64035895 272.8076026 -295 269 C-295.95975948 265.79100028 -296.36575571 262.57208251 -296.75 259.25 C-296.87141357 258.23719971 -296.99282715 257.22439941 -297.11791992 256.1809082 C-298.21570047 245.53452274 -298.29451606 234.88114129 -298.3125 224.1875 C-298.31608521 223.33007202 -298.31967041 222.47264404 -298.32336426 221.5892334 C-298.36096312 204.84493814 -297.25832733 188.38345943 -293.3125 172.0625 C-293.05267334 170.96695801 -292.79284668 169.87141602 -292.52514648 168.74267578 C-285.35649006 139.47616221 -272.43804196 109.94193508 -254 86 C-252.99927238 84.64637095 -251.99922224 83.29224067 -251 81.9375 C-250.00273369 80.62292168 -249.00260478 79.31051132 -248 78 C-247.43023437 77.24332031 -246.86046875 76.48664063 -246.2734375 75.70703125 C-240.73670086 68.54117251 -234.46785321 62.30727203 -228 56 C-227.16082031 55.14277344 -226.32164062 54.28554687 -225.45703125 53.40234375 C-223.03907715 51.03820739 -220.54030624 48.95344982 -217.875 46.875 C-214.57356311 44.31878989 -214.57356311 44.31878989 -211.51171875 41.4921875 C-207.80221467 37.83060983 -203.23060265 35.02266166 -199 32 C-198.22527344 31.43023437 -197.45054687 30.86046875 -196.65234375 30.2734375 C-178.50595124 17.13831291 -158.28997679 7.83914943 -137 1 C-136.28569824 0.76716309 -135.57139648 0.53432617 -134.83544922 0.29443359 C-91.39123068 -13.66103548 -43.40173134 -15.22111131 0 0 Z " fill="#7DBAFC" transform="translate(298,34)"/>
<path d="M0 0 C3.71152062 1.42143343 4.7908704 2.79325197 6.9375 6.125 C7.42003513 8.76883022 7.71134118 11.15350384 7.875 13.8125 C9.37653525 29.93905892 13.27508255 47.1141533 26.125 58.125 C37.04138629 65.71574021 51.28933276 68.89412044 64.30859375 70.40234375 C67.55503835 71.29475423 68.88010386 72.48866215 70.9375 75.125 C71.37187788 78.60002308 71.4430291 81.01489936 69.98046875 84.2265625 C66.75808369 87.22097768 63.06136828 87.33878253 58.8125 88 C51.89464365 89.23203309 45.26029317 90.73351657 38.625 93.0625 C37.95130371 93.29114746 37.27760742 93.51979492 36.58349609 93.75537109 C29.10416489 96.48109676 23.70009692 100.7330936 18.9375 107.125 C18.52757812 107.640625 18.11765625 108.15625 17.6953125 108.6875 C10.36891629 118.8807469 8.48450257 132.61319777 7.58984375 144.83203125 C6.84418843 148.59602785 6.0050691 149.8784078 2.9375 152.125 C-0.8316217 152.66344596 -3.02187668 152.85114924 -6.1953125 150.63671875 C-8.84648522 147.07039226 -8.97081717 143.77730334 -9.4375 139.4375 C-11.19896796 126.327434 -14.30531503 112.68059024 -24.0625 103.125 C-25.02929688 102.17753906 -25.02929688 102.17753906 -26.015625 101.2109375 C-35.4768784 92.97614287 -48.21777664 90.64450728 -60.15234375 88.01953125 C-70.73038787 85.6231682 -70.73038787 85.6231682 -73.0625 82.125 C-73.5244783 78.58316635 -73.38095386 76.69821695 -71.63671875 73.55859375 C-67.95280649 70.07592708 -64.39970287 69.80837117 -59.5 69.0625 C-57.68900985 68.74312341 -55.87908541 68.41764114 -54.0703125 68.0859375 C-53.2030957 67.92706055 -52.33587891 67.76818359 -51.44238281 67.60449219 C-39.01249594 65.10015306 -26.2395244 58.67173416 -19 48 C-12.72498043 36.81263266 -9.47241404 23.35038212 -8.90722656 10.59350586 C-8.65716911 6.81115195 -8.09488206 5.16555773 -5.6953125 2.16015625 C-3.0625 0.125 -3.0625 0.125 0 0 Z " fill="#FCB948" transform="translate(397.0625,-0.125)"/>
<path d="M0 0 C0.78608643 0.00684814 1.57217285 0.01369629 2.38208008 0.02075195 C12.01480965 0.2850556 19.81159953 3.20896183 27.1875 9.4375 C27.1875 10.0975 27.1875 10.7575 27.1875 11.4375 C28.06921875 11.80294922 28.06921875 11.80294922 28.96875 12.17578125 C35.58026601 15.93549898 38.61698479 23.80514691 40.6875 30.75 C43.53070812 42.85498907 42.06627638 55.29027245 35.6875 66.0625 C31.6014923 71.86132911 25.50716265 76.27766867 19.1875 79.4375 C19.97589939 89.09539254 22.14828034 100.09325597 27.1875 108.4375 C30.27711458 109.41224816 30.27711458 109.41224816 33.1875 109.4375 C33.1875 109.7675 33.1875 110.0975 33.1875 110.4375 C32.17429688 110.60185547 32.17429688 110.60185547 31.140625 110.76953125 C30.24859375 110.92808594 29.3565625 111.08664062 28.4375 111.25 C27.11492187 111.47623047 27.11492187 111.47623047 25.765625 111.70703125 C22.98301659 112.49543697 21.45675654 113.69741883 19.1875 115.4375 C18.1975 115.4375 17.2075 115.4375 16.1875 115.4375 C15.919375 116.076875 15.65125 116.71625 15.375 117.375 C14.1875 119.4375 14.1875 119.4375 11.1875 120.4375 C10.8575 121.0975 10.5275 121.7575 10.1875 122.4375 C3.56218234 110.45554252 -0.27762734 98.02226847 -1.8125 84.4375 C-2.44414062 84.37433594 -3.07578125 84.31117188 -3.7265625 84.24609375 C-15.17660652 82.67872461 -25.92296193 78.01301383 -33.19921875 68.8203125 C-40.12791981 58.58663782 -43.23534129 47.72781668 -41.34765625 35.40234375 C-39.19446436 24.50897648 -34.59506518 15.44562855 -25.8125 8.4375 C-17.73176168 3.08437552 -9.72995688 -0.13099026 0 0 Z " fill="#69B9FD" transform="translate(152.8125,217.5625)"/>
<path d="M0 0 C0.99 0.33 1.98 0.66 3 1 C2.25234375 1.86882812 1.5046875 2.73765625 0.734375 3.6328125 C-0.26058656 4.79672979 -1.25536868 5.96080049 -2.25 7.125 C-2.74113281 7.69476563 -3.23226562 8.26453125 -3.73828125 8.8515625 C-5.94298572 11.43841574 -7.95312518 13.92516659 -9.76171875 16.8125 C-13.17404025 21.67193166 -17.36443738 25.69247425 -21.5625 29.875 C-22.40619141 30.73480469 -23.24988281 31.59460938 -24.11914062 32.48046875 C-29.28464443 37.64989473 -34.60206152 42.1262706 -40.60668945 46.29467773 C-42.74800692 47.82044561 -44.68710746 49.41509508 -46.625 51.1875 C-49.71280562 53.91591732 -53.00610219 55.74923001 -56.640625 57.6640625 C-59.10008412 59.05667015 -61.29316394 60.62953601 -63.5625 62.3125 C-69.65362505 66.66330361 -76.25446341 69.83394431 -82.99267578 73.04345703 C-84.92628396 73.96487236 -86.85201156 74.90128872 -88.77734375 75.83984375 C-97.47941176 80 -97.47941176 80 -102 80 C-101 77 -101 77 -98.90551758 75.77661133 C-97.99439209 75.3823999 -97.0832666 74.98818848 -96.14453125 74.58203125 C-95.13632324 74.13657959 -94.12811523 73.69112793 -93.08935547 73.23217773 C-92.00799316 72.76368408 -90.92663086 72.29519043 -89.8125 71.8125 C-71.82598442 63.7810597 -55.98661504 54.04507816 -40.890625 41.3984375 C-39 40 -39 40 -37 40 C-37 39.34 -37 38.68 -37 38 C-35.35546875 36.30859375 -35.35546875 36.30859375 -33.1875 34.4375 C-32.47980469 33.81746094 -31.77210938 33.19742188 -31.04296875 32.55859375 C-29 31 -29 31 -26 30 C-25.71125 29.4225 -25.4225 28.845 -25.125 28.25 C-23.60387378 25.20774755 -21.51286104 23.26157493 -19 21 C-18.34 21 -17.68 21 -17 21 C-16.76925781 20.45085937 -16.53851563 19.90171875 -16.30078125 19.3359375 C-14.63594737 16.34623582 -12.52249401 14.12452882 -10.1875 11.625 C-6.67592704 7.82884226 -3.25626073 4.0160549 0 0 Z " fill="#9D85FB" transform="translate(369,381)"/>
<path d="M0 0 C1.9739602 5.92188061 -0.67753695 11.0451923 -2.75 16.625 C-6.11748935 25.93571624 -8.66829075 35.38385832 -11 45 C-11.2990625 46.21429688 -11.598125 47.42859375 -11.90625 48.6796875 C-14.0674601 58.03772721 -15.08022976 67.45603119 -16 77 C-16.66 77 -17.32 77 -18 77 C-17.855625 77.58990723 -17.71125 78.17981445 -17.5625 78.78759766 C-16.06887438 85.42982338 -15.8320014 91.59108305 -16 98.375 C-16.1807694 113.12372347 -14.97686256 127.54095327 -12 142 C-9.03 142 -6.06 142 -3 142 C-3 142.99 -3 143.98 -3 145 C-6.93888401 145.92679624 -9.14343379 146.43780051 -12.8125 144.5625 C-17.07324932 139.57133652 -17.41592159 132.15528548 -18.109375 125.77734375 C-18.19346619 125.00575424 -18.27755737 124.23416473 -18.36419678 123.43919373 C-19.20483149 115.02066421 -19.30197846 106.62292986 -19.26074219 98.16870117 C-19.25001982 95.56730792 -19.26071805 92.96660703 -19.2734375 90.36523438 C-19.28879946 74.35759874 -18.0811823 58.65877672 -14.3125 43.0625 C-14.05484863 41.97130859 -13.79719727 40.88011719 -13.53173828 39.75585938 C-11.0469497 29.57906838 -7.77397011 19.76458642 -4 10 C-3.34064453 8.29070312 -3.34064453 8.29070312 -2.66796875 6.546875 C-1.80118469 4.35388069 -0.91986941 2.17112034 0 0 Z " fill="#75D0FC" transform="translate(19,163)"/>
<path d="M0 0 C1.87404514 3.2697775 2.51585866 6.22125761 3.0625 9.9375 C3.21847656 10.95714844 3.37445313 11.97679687 3.53515625 13.02734375 C4.82034567 24.01085329 5.20613339 34.95008318 5.1875 46 C5.18656342 46.72299286 5.18562683 47.44598572 5.18466187 48.19088745 C5.11061001 74.69233185 1.06932593 99.72755794 -7 125 C-8.9092048 122.2958594 -9.02049411 121.12995489 -8.49609375 117.8046875 C-8.15456322 116.49179093 -7.8006797 115.18207346 -7.4375 113.875 C-5.5000943 106.29370088 -3.8650254 98.68173424 -2.375 91 C-2.06647095 89.45481689 -2.06647095 89.45481689 -1.75170898 87.87841797 C1.17213181 72.71609664 2.32303975 58.16681162 1.75 42.75 C1.69901347 41.12452322 1.64839851 39.49903475 1.59814453 37.87353516 C1.27460625 28.164104 0.7269424 18.50209094 -0.42675781 8.85058594 C-0.82517466 5.49084536 -1.0855752 3.25672559 0 0 Z " fill="#86C5FC" transform="translate(439,196)"/>
<path d="M0 0 C0.68208527 -0.00031219 1.36417053 -0.00062439 2.06692505 -0.00094604 C9.23219211 0.02414189 15.8318908 0.27394273 22.6875 2.4375 C22.6875 2.7675 22.6875 3.0975 22.6875 3.4375 C17.03257459 4.52177773 11.57422142 4.46479279 5.82739258 4.37207031 C-12.98134349 4.07446759 -30.3653188 6.26081355 -48.625 10.5703125 C-50.6535062 11.04735527 -52.68906273 11.50288388 -54.7421875 11.859375 C-59.5823081 12.94803435 -64.22807571 14.7721654 -68.89453125 16.44140625 C-69.67441406 16.71082031 -70.45429688 16.98023437 -71.2578125 17.2578125 C-71.96437988 17.50805176 -72.67094727 17.75829102 -73.39892578 18.01611328 C-75.3125 18.4375 -75.3125 18.4375 -78.3125 17.4375 C-75.66511084 15.9768715 -74.41801666 15.4375 -71.3125 15.4375 C-71.3125 14.4475 -71.3125 13.4575 -71.3125 12.4375 C-47.8525221 5.23561457 -24.61621571 -0.02588083 0 0 Z " fill="#8A89FB" transform="translate(228.3125,23.5625)"/>
<path d="M0 0 C0.99 0.495 0.99 0.495 2 1 C-4.25762587 11.66712025 -10.46407665 22.1785917 -18 32 C-18.6703125 32.92296875 -19.340625 33.8459375 -20.03125 34.796875 C-31.78038792 50.88808563 -45.75834223 68.24185642 -62 80 C-62.66 80 -63.32 80 -64 80 C-64 80.66 -64 81.32 -64 82 C-66.475 82.99 -66.475 82.99 -69 84 C-67.84826645 81.53199953 -66.95216435 79.95216435 -65 78 C-64.01 78 -63.02 78 -62 78 C-62 77.01 -62 76.02 -62 75 C-60.5390625 73.39453125 -60.5390625 73.39453125 -58.625 71.8125 C-57.99851562 71.28269531 -57.37203125 70.75289063 -56.7265625 70.20703125 C-55 69 -55 69 -53 69 C-53 68.34 -53 67.68 -53 67 C-50.625 64.375 -50.625 64.375 -48 62 C-47.34 62 -46.68 62 -46 62 C-45.61521484 61.12214844 -45.61521484 61.12214844 -45.22265625 60.2265625 C-43.89437838 57.80765392 -42.43475199 56.26801128 -40.4375 54.375 C-37.85984611 51.95478041 -37.85984611 51.95478041 -36 49 C-35.34 49 -34.68 49 -34 49 C-33.76410156 48.45472656 -33.52820313 47.90945313 -33.28515625 47.34765625 C-31.08639416 43.33107261 -27.94787718 40.03933677 -24.99609375 36.55859375 C-22.84684308 34.09755181 -22.84684308 34.09755181 -22 31 C-21.443125 30.47019531 -20.88625 29.94039063 -20.3125 29.39453125 C-16.92343228 25.88524323 -14.56070726 21.82329575 -12 17.6875 C-11.21882813 16.44323242 -11.21882813 16.44323242 -10.421875 15.17382812 C-8.11125724 11.47742319 -5.85513629 7.77453997 -3.75 3.95703125 C-2 1 -2 1 0 0 Z " fill="#978AFB" transform="translate(412,362)"/>
<path d="M0 0 C1.1328125 1.4921875 1.1328125 1.4921875 2 4 C1.41485788 6.80506274 0.71794065 9.39842322 -0.125 12.125 C-6.36222874 34.55664776 -7.42165386 55.89574585 -6.94067383 79.05419922 C-6.92538635 80.01817123 -6.91009888 80.98214325 -6.89434814 81.97532654 C-6.86386043 83.80491843 -6.82037218 85.63435283 -6.762146 87.46327209 C-6.74271942 88.68982765 -6.74271942 88.68982765 -6.72290039 89.94116211 C-6.70417374 90.65549911 -6.68544708 91.36983612 -6.66615295 92.1058197 C-7.09694777 94.55006197 -8.13460803 95.43197573 -10 97 C-11.55373847 93.89252306 -10.58528628 91.25773473 -10.0625 87.875 C-9.86785156 86.59367187 -9.67320313 85.31234375 -9.47265625 83.9921875 C-9.31667969 83.00476563 -9.16070313 82.01734375 -9 81 C-9.66 81 -10.32 81 -11 81 C-11.75974722 52.78707925 -8.16808204 27.0635785 0 0 Z " fill="#72D0FC" transform="translate(28,208)"/>
<path d="M0 0 C0.99 0.33 1.98 0.66 3 1 C6.72790445 28.3214416 11.60214282 64.42396201 1 91 C-0.485 91.495 -0.485 91.495 -2 92 C-1.26077465 85.83978876 -0.39305348 79.70224268 0.5 73.5625 C0.7475 71.7990625 0.7475 71.7990625 1 70 C1.17184814 68.7819165 1.34369629 67.56383301 1.52075195 66.30883789 C2.0501436 62.02807919 2.16100838 57.80570542 2.16796875 53.49609375 C2.174049 52.30628403 2.174049 52.30628403 2.18025208 51.09243774 C2.18964187 48.54075004 2.18965675 45.98920253 2.1875 43.4375 C2.1882251 42.57115936 2.1889502 41.70481873 2.18969727 40.81222534 C2.18842837 27.10829891 1.62792731 13.61935618 0 0 Z " fill="#8BC9FB" transform="translate(415,197)"/>
<path d="M0 0 C0.99 0.99 0.99 0.99 2 2 C0.76902588 1.9858606 0.76902588 1.9858606 -0.48681641 1.97143555 C-9.80988698 1.91208201 -19.07136406 2.25640244 -28.375 2.8125 C-29.47453506 2.87627838 -29.47453506 2.87627838 -30.59628296 2.94134521 C-43.0645389 3.67490135 -55.40914483 4.92635136 -67.76879883 6.75634766 C-70.19470177 7.02126188 -72.56158207 7.04029555 -75 7 C-75 6.34 -75 5.68 -75 5 C-50.63009115 -0.45674046 -24.95096112 -3.97714568 0 0 Z " fill="#7E92FB" transform="translate(259,53)"/>
<path d="M0 0 C0.66 0.33 1.32 0.66 2 1 C1.20980469 1.64582031 0.41960937 2.29164062 -0.39453125 2.95703125 C-16.22025897 16.09658762 -30.89421599 30.40005723 -42.625 47.34765625 C-43.305625 48.16556641 -43.305625 48.16556641 -44 49 C-44.66 49 -45.32 49 -46 49 C-46.33 50.32 -46.66 51.64 -47 53 C-47.66 53 -48.32 53 -49 53 C-47.75828659 48.66027435 -46.2776884 45.69621969 -43.375 42.25 C-42.29605469 40.95449219 -42.29605469 40.95449219 -41.1953125 39.6328125 C-40.47085938 38.76398438 -39.74640625 37.89515625 -39 37 C-37.7492477 35.37557897 -36.49924205 33.75058275 -35.25 32.125 C-30.31499841 25.93914652 -24.65565051 20.51523436 -19 15 C-18.17113281 14.15566406 -17.34226562 13.31132813 -16.48828125 12.44140625 C-13.8885001 9.89060057 -11.18970689 7.56069602 -8.375 5.25 C-6.96347656 4.08210938 -6.96347656 4.08210938 -5.5234375 2.890625 C-3 1 -3 1 0 0 Z " fill="#72C1FC" transform="translate(89,75)"/>
<path d="M0 0 C0.99 0.33 1.98 0.66 3 1 C-0.97917722 5.22787579 -5.29270204 8.61404883 -10 12 C-10.77601563 12.56976563 -11.55203125 13.13953125 -12.3515625 13.7265625 C-23.13517362 21.49760924 -35.09356649 27.17676614 -47 33 C-48.10988281 33.5465625 -49.21976562 34.093125 -50.36328125 34.65625 C-51.33652344 35.1203125 -52.30976563 35.584375 -53.3125 36.0625 C-54.15425781 36.46597656 -54.99601562 36.86945313 -55.86328125 37.28515625 C-58 38 -58 38 -61 37 C-61 36.34 -61 35.68 -61 35 C-60.45811035 34.77973145 -59.9162207 34.55946289 -59.35791016 34.33251953 C-41.33893952 26.95267159 -24.95374642 18.46182442 -9.10302734 7.11425781 C-8.34844238 6.57897461 -7.59385742 6.04369141 -6.81640625 5.4921875 C-6.15068604 5.01120605 -5.48496582 4.53022461 -4.79907227 4.03466797 C-3 3 -3 3 0 3 C0 2.01 0 1.02 0 0 Z " fill="#A482FC" transform="translate(339,446)"/>
<path d="M0 0 C1.32 0 2.64 0 4 0 C5.39453125 1.79296875 5.39453125 1.79296875 6.8125 4.1875 C11.63996849 10.65814487 18.30628398 12.73583818 26 14 C37.86123389 15.31139055 49.16538683 14.82443282 59.1875 7.75 C59.785625 7.1725 60.38375 6.595 61 6 C61.66 6.33 62.32 6.66 63 7 C61.15637423 11.7610116 58.07417714 12.83946291 53.62890625 14.89453125 C42.13932632 19.72595936 28.57959673 19.6616734 17 15 C10.34709619 11.67943562 3.07829102 6.94856954 0 0 Z " fill="#63B5FD" transform="translate(45,470)"/>
<path d="M0 0 C5.81953373 -0.33736427 10.10089669 0.8570355 15.5625 2.75 C36.98823267 9.60509533 59.65751867 10.7797376 82 10 C81.67 10.66 81.34 11.32 81 12 C52.93025011 13.99660399 26.13843867 12.67887685 0 1 C0 0.67 0 0.34 0 0 Z " fill="#69AEFC" transform="translate(136,462)"/>
<path d="M0 0 C0.66 0.33 1.32 0.66 2 1 C1.46632812 1.7528125 0.93265625 2.505625 0.3828125 3.28125 C-2.10912304 6.8337671 -4.56328416 10.40948103 -7 14 C-7.40605469 14.59377441 -7.81210937 15.18754883 -8.23046875 15.79931641 C-19.21383353 32.02110638 -27.54368917 50.18929305 -33 69 C-33.82638376 66.10765685 -34 64.11257569 -34 61 C-33.34 61 -32.68 61 -32 61 C-31.89945313 59.82695312 -31.79890625 58.65390625 -31.6953125 57.4453125 C-31.15499196 53.16228381 -29.78255038 49.76708709 -27.875 45.875 C-27.56079102 45.22958252 -27.24658203 44.58416504 -26.92285156 43.91918945 C-26.2716563 42.58606068 -25.61540448 41.25538993 -24.95410156 39.92724609 C-24.07172756 38.14488674 -23.21813486 36.34835665 -22.3671875 34.55078125 C-17.9063573 25.27354744 -12.63452312 16.57510017 -7.15429688 7.87060547 C-6.1766501 6.2862718 -5.26075919 4.66408625 -4.359375 3.03515625 C-3 1 -3 1 0 0 Z " fill="#76D1FD" transform="translate(64,141)"/>
<path d="M0 0 C-0.171875 1.86328125 -0.171875 1.86328125 -1 4 C-3.328125 5.23046875 -3.328125 5.23046875 -6.25 6.1875 C-7.20390625 6.51105469 -8.1578125 6.83460938 -9.140625 7.16796875 C-15.42483033 8.99656948 -21.24401767 9.18316268 -27.75 9.1875 C-28.70132813 9.19974609 -29.65265625 9.21199219 -30.6328125 9.22460938 C-38.8054792 9.24140253 -46.00748132 8.06726141 -53.5625 4.875 C-54.40941406 4.52179688 -55.25632813 4.16859375 -56.12890625 3.8046875 C-56.74636719 3.53914063 -57.36382812 3.27359375 -58 3 C-54.2735915 1.95297814 -50.86986958 1.92557943 -47 2 C-47 2.66 -47 3.32 -47 4 C-30.48929005 5.17334995 -15.25605487 0 0 0 Z " fill="#67B6FC" transform="translate(249,364)"/>
<path d="M0 0 C0.33 0 0.66 0 1 0 C4.20979644 19.25877866 1.78467827 40.74680467 -5 59 C-6.74565111 55.78360346 -7.204437 53.67986596 -7 50 C-6.34 50 -5.68 50 -5 50 C-4.95101563 49.42894531 -4.90203125 48.85789062 -4.8515625 48.26953125 C-2.98073555 27.98073555 -2.98073555 27.98073555 -1 26 C-0.92487944 24.24236663 -0.91683322 22.4817728 -0.9375 20.72265625 C-0.94523437 19.65208984 -0.95296875 18.58152344 -0.9609375 17.47851562 C-0.9869345 15.20507761 -1.01297602 12.93164011 -1.0390625 10.65820312 C-1.04679687 9.58634766 -1.05453125 8.51449219 -1.0625 7.41015625 C-1.07410156 6.42152588 -1.08570313 5.43289551 -1.09765625 4.41430664 C-1 2 -1 2 0 0 Z " fill="#89CBFD" transform="translate(293,262)"/>
<path d="M0 0 C6.04840061 4.58844184 6.87623297 10.93691909 8.39453125 18.03515625 C8.78952086 21.19138162 8.6566278 23.33728839 7.8125 26.375 C5.39986314 22.17165046 4.502072 17.53295951 3.40039062 12.86328125 C2.4634957 9.12316685 1.62263535 6.09668072 -1.1875 3.375 C-5.82601469 2.77648198 -7.83762202 2.58805815 -11.89453125 4.953125 C-14.95075013 8.18115857 -14.87816608 10.23897889 -15 14.625 C-15.04769531 15.88828125 -15.09539062 17.1515625 -15.14453125 18.453125 C-15.15871094 19.41734375 -15.17289062 20.3815625 -15.1875 21.375 C-15.8475 21.375 -16.5075 21.375 -17.1875 21.375 C-18.78120079 9.69940945 -18.78120079 9.69940945 -16.5625 4.75 C-11.51371862 -0.29878138 -7.14141633 -2.04040467 0 0 Z " fill="#9CD9FC" transform="translate(430.1875,169.625)"/>
<path d="M0 0 C1.13598633 0.00483398 1.13598633 0.00483398 2.29492188 0.00976562 C3.47344727 0.02233398 3.47344727 0.02233398 4.67578125 0.03515625 C5.47306641 0.03966797 6.27035156 0.04417969 7.09179688 0.04882812 C9.05732382 0.06059775 11.0228121 0.07853277 12.98828125 0.09765625 C12.98828125 0.75765625 12.98828125 1.41765625 12.98828125 2.09765625 C11.94929688 2.195625 10.9103125 2.29359375 9.83984375 2.39453125 C-5.02638195 3.92472047 -15.03116648 7.41876331 -24.90234375 19.390625 C-25.90975133 20.73302006 -26.89766931 22.09052115 -27.85546875 23.46875 C-29.01171875 25.09765625 -29.01171875 25.09765625 -31.01171875 27.09765625 C-30.67894692 19.1111323 -26.49261101 14.20647848 -20.76171875 8.91015625 C-15.06438129 4.25563502 -7.48293284 -0.05626265 0 0 Z " fill="#4BA4FC" transform="translate(73.01171875,402.90234375)"/>
<path d="M0 0 C-4.23712893 4.23712893 -10.98008848 4.23050908 -16.69863892 4.27789307 C-17.4916037 4.2738446 -18.28456848 4.26979614 -19.1015625 4.265625 C-19.94165863 4.26753845 -20.78175476 4.2694519 -21.64730835 4.27142334 C-23.41038312 4.27277556 -25.17346818 4.26914692 -26.93652344 4.26074219 C-29.62457703 4.25000169 -32.31196652 4.26068406 -35 4.2734375 C-36.72135563 4.27211626 -38.44271085 4.2695546 -40.1640625 4.265625 C-41.35958237 4.27169769 -41.35958237 4.27169769 -42.57925415 4.27789307 C-47.10716886 4.24006123 -50.73438686 3.71373327 -55 2 C-55 1.67 -55 1.34 -55 1 C-48.61371902 0.85618021 -42.22740428 0.71393624 -35.84106445 0.57275391 C-33.67146014 0.52460869 -31.50186361 0.47611143 -29.33227539 0.42724609 C-26.20200582 0.35680604 -23.07170984 0.28765954 -19.94140625 0.21875 C-18.98166397 0.19687622 -18.02192169 0.17500244 -17.03309631 0.15246582 C-11.35376167 0.02891082 -5.68068913 -0.02035177 0 0 Z " fill="#5C9EFB" transform="translate(231,495)"/>
<path d="M0 0 C1.87404514 3.2697775 2.51585866 6.22125761 3.0625 9.9375 C3.21847656 10.95714844 3.37445313 11.97679687 3.53515625 13.02734375 C4.87539833 24.48134535 5.12921794 35.80050891 5.0625 47.3125 C5.05746888 48.84309747 5.05290886 50.37369657 5.04882812 51.90429688 C5.03796424 55.60289911 5.02079101 59.30143864 5 63 C4.67 63 4.34 63 4 63 C3.67 60.03 3.34 57.06 3 54 C2.67 54 2.34 54 2 54 C1.98018066 53.20118408 1.96036133 52.40236816 1.93994141 51.5793457 C1.84241491 47.82349798 1.73691696 44.06794205 1.625 40.3125 C1.60487854 39.6350473 1.58475708 38.9575946 1.56402588 38.25961304 C1.26401596 28.53436356 0.69586211 18.88000341 -0.42724609 9.21020508 C-1.09509853 3.2852956 -1.09509853 3.2852956 0 0 Z " fill="#9AD9FC" transform="translate(439,196)"/>
<path d="M0 0 C5.46988473 0.57394657 9.79840257 2.52114636 14.6875 4.875 C15.44611328 5.22691406 16.20472656 5.57882813 16.98632812 5.94140625 C23.42199526 8.99735411 23.42199526 8.99735411 26 12 C26.73351034 15.08756678 26.68310171 17.90364554 26 21 C22.0854682 24.81905541 18.35615755 25.5715074 13 26 C13.99 25.34 14.98 24.68 16 24 C16.680625 23.46375 17.36125 22.9275 18.0625 22.375 C20 21 20 21 22 21 C22 18.36 22 15.72 22 13 C16.72 10.36 11.44 7.72 6 5 C6 4.34 6 3.68 6 3 C4.35 3 2.7 3 1 3 C0.67 2.01 0.34 1.02 0 0 Z " fill="#8ECDF8" transform="translate(309,39)"/>
<path d="M0 0 C1.83203125 0.16796875 1.83203125 0.16796875 4 1 C5.44921875 3.36328125 5.44921875 3.36328125 6.6875 6.3125 C7.10386719 7.27800781 7.52023438 8.24351562 7.94921875 9.23828125 C9.82197362 14.16035445 10.1355271 18.12657758 10.125 23.4375 C10.12757812 24.73558594 10.13015625 26.03367187 10.1328125 27.37109375 C10.02191827 30.40111541 9.71254666 33.06498638 9 36 C8.34 36 7.68 36 7 36 C6.35504993 31.64658703 5.97014066 27.58691298 6.125 23.1875 C6.20707626 15.58958346 4.27712751 8.3138549 0 2 C0 1.34 0 0.68 0 0 Z " fill="#59B4FD" transform="translate(114,421)"/>
<path d="M0 0 C0 0.66 0 1.32 0 2 C-2.14024277 4.14024277 -3.36203882 4.63364788 -6.1875 5.5625 C-6.92355469 5.81128906 -7.65960938 6.06007813 -8.41796875 6.31640625 C-11 7 -11 7 -14.31640625 7.42578125 C-19.04490648 8.16288574 -23.27118294 9.71302817 -27.74609375 11.359375 C-32.68861607 13.10379464 -32.68861607 13.10379464 -36 12 C-33.35261084 10.5393715 -32.10551666 10 -29 10 C-29 9.01 -29 8.02 -29 7 C-24.919064 5.82483331 -20.83488859 4.66134593 -16.75 3.5 C-15.59113281 3.16613281 -14.43226563 2.83226562 -13.23828125 2.48828125 C-12.12324219 2.17246094 -11.00820312 1.85664063 -9.859375 1.53125 C-8.83295898 1.23798828 -7.80654297 0.94472656 -6.74902344 0.64257812 C-4 0 -4 0 0 0 Z " fill="#839DFC" transform="translate(186,29)"/>
<path d="M0 0 C0.66 0.33 1.32 0.66 2 1 C-4.26211211 11.67476776 -10.52007355 22.12865476 -18 32 C-19.36912507 33.97978597 -20.69002131 35.98044953 -22 38 C-22.93423645 34.98968256 -23.04449911 34.13349732 -22 31 C-21.443125 30.47019531 -20.88625 29.94039063 -20.3125 29.39453125 C-16.92343228 25.88524323 -14.56070726 21.82329575 -12 17.6875 C-11.47921875 16.85798828 -10.9584375 16.02847656 -10.421875 15.17382812 C-8.11125724 11.47742319 -5.85513629 7.77453997 -3.75 3.95703125 C-2 1 -2 1 0 0 Z " fill="#9897FB" transform="translate(412,362)"/>
<path d="M0 0 C5.76968966 0.71278303 11.06954272 2.55756671 16.5625 4.375 C24.64883061 7.00637261 32.65042259 9.34583844 41 11 C41 11.33 41 11.66 41 12 C28.86319207 13.33208868 15.74945185 9.63283423 5 4 C5 3.34 5 2.68 5 2 C3.35 1.67 1.7 1.34 0 1 C0 0.67 0 0.34 0 0 Z " fill="#62A7FC" transform="translate(125,483)"/>
<path d="M0 0 C0 0.33 0 0.66 0 1 C-1.7491497 1.33776684 -3.49936145 1.67003671 -5.25 2 C-6.71179688 2.2784375 -6.71179688 2.2784375 -8.203125 2.5625 C-11 3 -11 3 -15 3 C-15 5.64 -15 8.28 -15 11 C-13.2675 11.1546875 -13.2675 11.1546875 -11.5 11.3125 C-6.98828481 11.86035113 -3.19394251 13.2774879 1 15 C1 15.33 1 15.66 1 16 C-11.07997886 16.39320004 -11.07997886 16.39320004 -17 14 C-19.32579101 10.51131349 -19.41865457 9.10281481 -19 5 C-18.0625 2.6875 -18.0625 2.6875 -16 1 C-10.78568908 -0.23852894 -5.33023848 -0.11340933 0 0 Z " fill="#FCB833" transform="translate(343,71)"/>
<path d="M0 0 C1.31322788 0.97819024 2.62556152 1.9575811 3.9375 2.9375 C4.66839844 3.48277344 5.39929688 4.02804687 6.15234375 4.58984375 C8 6 8 6 9 7 C14.40275331 7.5804611 18.60747362 7.48818272 23 4 C24.75149165 2.41754725 24.75149165 2.41754725 26 1 C26.36576193 4.29185738 26.3221413 5.58581832 24.25 8.25 C20.00409796 11.55236825 15.26264192 11.57797801 10 11 C6.40088585 9.5739359 3.41444689 8.08512658 1 5 C1 4.34 1 3.68 1 3 C-0.32 2.67 -1.64 2.34 -3 2 C-2.01 1.34 -1.02 0.68 0 0 Z " fill="#8D7FFB" transform="translate(269,354)"/>
<path d="M0 0 C0.99 0.33 1.98 0.66 3 1 C4.87663486 12.79250509 5.11213354 24.08693226 4.625 36 C4.56654511 37.66141781 4.50924788 39.32287678 4.453125 40.984375 C4.31535784 44.99018101 4.16216981 48.99511078 4 53 C3.67 53 3.34 53 3 53 C2.98018066 52.21165771 2.96036133 51.42331543 2.93994141 50.61108398 C2.49503416 33.67142504 1.70679216 16.86907207 0 0 Z " fill="#A2E1FD" transform="translate(415,197)"/>
<path d="M0 0 C8.14986678 2.29215003 14.79833811 9.92351682 19 17 C19.92767765 19.35487403 20.4812934 21.5102083 21 24 C20.01 24.33 19.02 24.66 18 25 C17.68869141 24.1646875 17.68869141 24.1646875 17.37109375 23.3125 C13.34316596 13.33537343 7.13955269 7.47129685 -2 2 C-1.34 1.34 -0.68 0.68 0 0 Z " fill="#908CFC" transform="translate(300,181)"/>
<path d="M0 0 C32.16936797 -0.24819097 32.16936797 -0.24819097 40 1 C40.66 1.66 41.32 2.32 42 3 C37.14365099 3.0496911 32.28745224 3.08585664 27.4309082 3.10986328 C25.78114237 3.11987851 24.13139409 3.1334946 22.48168945 3.15087891 C20.10102995 3.17532542 17.72060653 3.18652803 15.33984375 3.1953125 C14.24566383 3.21079636 14.24566383 3.21079636 13.12937927 3.22659302 C8.38680589 3.22761619 4.50583078 2.49418829 0 1 C0 0.67 0 0.34 0 0 Z " fill="#7E84F9" transform="translate(219,52)"/>
<path d="M0 0 C0 0.66 0 1.32 0 2 C-1.134375 2.10957031 -2.26875 2.21914062 -3.4375 2.33203125 C-4.95839183 2.49163101 -6.47922204 2.6518188 -8 2.8125 C-8.74378906 2.88275391 -9.48757813 2.95300781 -10.25390625 3.02539062 C-18.14272776 3.88287122 -24.56056148 6.33140707 -31 11 C-31.66 10.67 -32.32 10.34 -33 10 C-28.83763014 4.49098107 -25.49810887 1.68712853 -18.5 0.3125 C-12.36228096 -0.28688663 -6.1584776 -0.07784592 0 0 Z " fill="#6E8AFB" transform="translate(289,178)"/>
<path d="M0 0 C0 6.95225128 -7.16105375 13.64756901 -11.25 19.0625 C-11.68618652 19.64692871 -12.12237305 20.23135742 -12.57177734 20.83349609 C-13.66587364 22.26096647 -14.82779542 23.63594179 -16 25 C-16.66 25 -17.32 25 -18 25 C-18.33 26.32 -18.66 27.64 -19 29 C-19.66 29 -20.32 29 -21 29 C-19.75828659 24.66027435 -18.2776884 21.69621969 -15.375 18.25 C-14.66730469 17.39792969 -13.95960937 16.54585937 -13.23046875 15.66796875 C-12.49441406 14.78753906 -11.75835937 13.90710938 -11 13 C-9.55892679 11.19033968 -8.12129436 9.37793279 -6.6875 7.5625 C-4.57239966 4.8896653 -2.46370243 2.35757371 0 0 Z " fill="#7ECDFD" transform="translate(61,99)"/>
<path d="M0 0 C0.33 0 0.66 0 1 0 C1.21694916 5.92601769 1.41383054 11.85223162 1.59204102 17.77954102 C1.65551701 19.79632437 1.72449944 21.81294217 1.79907227 23.8293457 C1.90524057 26.72581651 1.99166898 29.62230316 2.07421875 32.51953125 C2.11157639 33.42274612 2.14893402 34.325961 2.18742371 35.25654602 C2.20767105 36.09719101 2.2279184 36.937836 2.2487793 37.80395508 C2.27320602 38.54341873 2.29763275 39.28288239 2.32279968 40.04475403 C1.91069342 42.54094332 0.90793081 43.40915225 -1 45 C-2.36301035 42.2739793 -1.86749052 40.54237457 -1.5625 37.5 C-0.85526421 28.93259936 -0.94596544 20.39245525 -1.03735352 11.80078125 C-1.04565186 10.70765625 -1.0539502 9.61453125 -1.0625 8.48828125 C-1.07410156 7.50384033 -1.08570312 6.51939941 -1.09765625 5.50512695 C-1 3 -1 3 0 0 Z " fill="#8FDFFD" transform="translate(19,260)"/>
<path d="M0 0 C-5.42393864 6.81469214 -19.23183434 8.48917359 -27.4140625 9.73828125 C-29.96297875 9.99625314 -32.44002615 10.05082981 -35 10 C-32.55327539 7.55327539 -30.84015595 7.2380924 -27.51171875 6.34375 C-26.41279297 6.04339844 -25.31386719 5.74304688 -24.18164062 5.43359375 C-23.02857422 5.12550781 -21.87550781 4.81742187 -20.6875 4.5 C-18.41988453 3.88796149 -16.15293074 3.27346495 -13.88671875 2.65625 C-12.87826904 2.38619141 -11.86981934 2.11613281 -10.83081055 1.83789062 C-7.98405072 1.05800519 -7.98405072 1.05800519 -5.31958008 -0.16601562 C-3 -1 -3 -1 0 0 Z " fill="#6A95FC" transform="translate(279,483)"/>
<path d="M0 0 C2.33341499 -0.02734471 4.66649949 -0.04700237 7 -0.0625 C8.9490625 -0.07990234 8.9490625 -0.07990234 10.9375 -0.09765625 C14.23990264 -0.07284096 17.41112309 0.32406106 20.68359375 0.77514648 C25.76948066 1.26883344 30.89570348 1.1005045 36 1.0625 C37.15628906 1.05798828 38.31257813 1.05347656 39.50390625 1.04882812 C42.33599225 1.03712529 45.16796811 1.02072996 48 1 C47.67 1.66 47.34 2.32 47 3 C42.39662985 3.22016286 37.79302546 3.41632508 33.18774414 3.59204102 C31.62725704 3.65475563 30.06700119 3.72357889 28.50708008 3.79907227 C18.43280988 4.28157508 9.75050674 3.93384729 0 1 C0 0.67 0 0.34 0 0 Z " fill="#559DFB" transform="translate(170,471)"/>
<path d="M0 0 C0.66 0.33 1.32 0.66 2 1 C1.071875 1.598125 0.14375 2.19625 -0.8125 2.8125 C-3.8320834 4.69223054 -3.8320834 4.69223054 -5.234375 6.40625 C-7.93569966 8.84461385 -11.16201787 10.18322777 -14.4375 11.6875 C-15.10587891 12.00783203 -15.77425781 12.32816406 -16.46289062 12.65820312 C-19.94380634 14.27619071 -22.09686552 15 -26 15 C-25 12 -25 12 -22.69921875 10.66552734 C-21.70535156 10.2267627 -20.71148437 9.78799805 -19.6875 9.3359375 C-18.61242187 8.85382813 -17.53734375 8.37171875 -16.4296875 7.875 C-15.29789062 7.38 -14.16609375 6.885 -13 6.375 C-10.77008665 5.38449179 -8.54087976 4.39239106 -6.3125 3.3984375 C-4.82169922 2.74367432 -4.82169922 2.74367432 -3.30078125 2.07568359 C-1.085802 1.19949439 -1.085802 1.19949439 0 0 Z " fill="#A296FD" transform="translate(293,446)"/>
<path d="M0 0 C0.99 0.6496875 0.99 0.6496875 2 1.3125 C10.19590605 5.92269715 16.71518217 6.39489284 26 6.1875 C27.73443359 6.16719727 27.73443359 6.16719727 29.50390625 6.14648438 C32.33643004 6.11137044 35.16796307 6.06219 38 6 C37.67 6.66 37.34 7.32 37 8 C32.50113146 8.25668005 28.00117273 8.47539117 23.5 8.6875 C21.59734375 8.79674805 21.59734375 8.79674805 19.65625 8.90820312 C12.61814718 9.2197858 7.36701339 9.12723259 1 6 C0.67 7.32 0.34 8.64 0 10 C0 6.7 0 3.4 0 0 Z " fill="#91C4FD" transform="translate(198,341)"/>
<path d="M0 0 C-1.15643617 2.5056117 -2.36865259 4.4803655 -4.0625 6.6875 C-6.23502409 10.40181537 -6.54297307 12.92903558 -6.7265625 17.14453125 C-6.81679687 17.75683594 -6.90703125 18.36914062 -7 19 C-7.66 19.33 -8.32 19.66 -9 20 C-9.66 19.67 -10.32 19.34 -11 19 C-11.59476779 11.86278657 -9.47474591 6.99969201 -4.9375 1.5 C-3 0 -3 0 0 0 Z " fill="#948AFB" transform="translate(259,322)"/>
<path d="M0 0 C1.32 0.33 2.64 0.66 4 1 C3.28972656 1.69867188 2.57945313 2.39734375 1.84765625 3.1171875 C0.92855469 4.02726562 0.00945312 4.93734375 -0.9375 5.875 C-1.85402344 6.77992187 -2.77054688 7.68484375 -3.71484375 8.6171875 C-6.01187627 10.77682255 -6.01187627 10.77682255 -7 13 C-7.66 13 -8.32 13 -9 13 C-9.25523438 13.56203125 -9.51046875 14.1240625 -9.7734375 14.703125 C-11.15692781 17.29386482 -12.79938583 19.45107845 -14.625 21.75 C-15.25664063 22.54921875 -15.88828125 23.3484375 -16.5390625 24.171875 C-17.02117187 24.77515625 -17.50328125 25.3784375 -18 26 C-18.33 25.01 -18.66 24.02 -19 23 C-18.01 21.515 -18.01 21.515 -17 20 C-16.34 20 -15.68 20 -15 20 C-14.938125 19.278125 -14.87625 18.55625 -14.8125 17.8125 C-13.74416929 14.11443214 -11.82491139 12.55587221 -9 10 C-8.443125 9.401875 -7.88625 8.80375 -7.3125 8.1875 C-6 7 -6 7 -4 7 C-4 6.01 -4 5.02 -4 4 C-3.01 3.67 -2.02 3.34 -1 3 C-0.67 2.01 -0.34 1.02 0 0 Z " fill="#7CD3FD" transform="translate(85,115)"/>
<path d="M0 0 C-3.54061357 3.54061357 -8.42246164 5.12845974 -12.9375 7.1875 C-13.95263672 7.66380859 -14.96777344 8.14011719 -16.01367188 8.63085938 C-16.98755859 9.07623047 -17.96144531 9.52160156 -18.96484375 9.98046875 C-19.8580835 10.39192139 -20.75132324 10.80337402 -21.67163086 11.22729492 C-24 12 -24 12 -27 11 C-27 10.34 -27 9.68 -27 9 C-23.63283712 7.48195055 -20.25515189 5.98887643 -16.875 4.5 C-15.92367188 4.07074219 -14.97234375 3.64148438 -13.9921875 3.19921875 C-5.23053496 -0.63400424 -5.23053496 -0.63400424 0 0 Z " fill="#8A89FC" transform="translate(305,472)"/>
<path d="M0 0 C0.66 0 1.32 0 2 0 C3.49265113 5.10836666 3.22406692 10.28187691 3.25 15.5625 C3.270625 16.61630859 3.29125 17.67011719 3.3125 18.75585938 C3.31765625 19.76583984 3.3228125 20.77582031 3.328125 21.81640625 C3.3374707 22.73881104 3.34681641 23.66121582 3.35644531 24.61157227 C3 27 3 27 0 30 C0 20.1 0 10.2 0 0 Z " fill="#6EBEFC" transform="translate(274,259)"/>
<path d="M0 0 C0 3 0 3 -1.32421875 4.48828125 C-1.87722656 4.98714844 -2.43023437 5.48601562 -3 6 C-6.83235192 10.24027734 -10.33178656 14.68784773 -13.703125 19.30078125 C-15 21 -15 21 -17 23 C-16.69351925 15.64446202 -13.39055578 11.2471919 -8.15234375 6.23046875 C-5.52901995 3.94132632 -2.90105635 1.93403757 0 0 Z " fill="#5DB4FD" transform="translate(59,407)"/>
<path d="M0 0 C0.66 0 1.32 0 2 0 C1.68035855 8.87005023 -0.09590097 16.62538885 -3 25 C-4.74565111 21.78360346 -5.204437 19.67986596 -5 16 C-4.34 16 -3.68 16 -3 16 C-2.95101563 15.34773438 -2.90203125 14.69546875 -2.8515625 14.0234375 C-2.42757771 9.06720147 -1.84334427 4.66980549 0 0 Z " fill="#6FBCFD" transform="translate(291,296)"/>
<path d="M0 0 C-7.79977658 4.45701519 -17.29901973 4.12488638 -25.875 2 C-26.90625 1.67 -27.9375 1.34 -29 1 C-29 0.67 -29 0.34 -29 0 C-24.5420032 -0.19616609 -20.08359465 -0.38047068 -15.625 -0.5625 C-14.35398438 -0.61857422 -13.08296875 -0.67464844 -11.7734375 -0.73242188 C-10.56171875 -0.78076172 -9.35 -0.82910156 -8.1015625 -0.87890625 C-6.98088379 -0.9260376 -5.86020508 -0.97316895 -4.70556641 -1.02172852 C-2 -1 -2 -1 0 0 Z " fill="#6AB1FC" transform="translate(237,349)"/>
<path d="M0 0 C0.99 0.33 1.98 0.66 3 1 C-7.64114182 11.88989579 -7.64114182 11.88989579 -12 15 C-12.66 15 -13.32 15 -14 15 C-14 15.66 -14 16.32 -14 17 C-15.65 17.66 -17.3 18.32 -19 19 C-17.84826645 16.53199953 -16.95216435 14.95216435 -15 13 C-14.01 13 -13.02 13 -12 13 C-12 12.01 -12 11.02 -12 10 C-10.5390625 8.39453125 -10.5390625 8.39453125 -8.625 6.8125 C-7.99851562 6.28269531 -7.37203125 5.75289063 -6.7265625 5.20703125 C-5 4 -5 4 -3 4 C-3 3.34 -3 2.68 -3 2 C-2.01 1.34 -1.02 0.68 0 0 Z " fill="#A483FC" transform="translate(362,427)"/>
<path d="M0 0 C2.27505004 2.16671432 4.23575092 4.39563231 6 7 C6 7.66 6 8.32 6 9 C6.53625 9.2475 7.0725 9.495 7.625 9.75 C10.56648283 11.29814886 13.25359843 13.13010957 16 15 C16.99 15.66 17.98 16.32 19 17 C16.78125 17.6953125 16.78125 17.6953125 14 18 C10.63257373 16.14330264 7.87988162 13.53617062 5 11 C3.989375 10.154375 2.97875 9.30875 1.9375 8.4375 C0 6 0 6 -0.3125 2.6875 C-0.209375 1.800625 -0.10625 0.91375 0 0 Z " fill="#62AFFD" transform="translate(248,237)"/>
<path d="M0 0 C1.32 0 2.64 0 4 0 C5.5703125 1.828125 5.5703125 1.828125 7.125 4.25 C10.89933152 9.47156974 14.91854892 11.25020623 21 13 C21 13.99 21 14.98 21 16 C13.60571961 13.88734846 7.33852936 9.50363851 2 4 C0.796875 1.8125 0.796875 1.8125 0 0 Z " fill="#5BAFFC" transform="translate(45,470)"/>
<path d="M0 0 C9.9545624 -0.4618096 17.87816541 1.04720501 27 5 C27 5.99 27 6.98 27 8 C21.60204011 6.84941444 16.29012667 5.57578241 11 4 C11 3.01 11 2.02 11 1 C7.37 1 3.74 1 0 1 C0 0.67 0 0.34 0 0 Z " fill="#69B7FC" transform="translate(75,402)"/>
<path d="M0 0 C11.38380184 -0.11858127 22.64753762 0.13387208 34 1 C34 1.33 34 1.66 34 2 C6.62691466 3.9452954 6.62691466 3.9452954 0 1 C0 0.67 0 0.34 0 0 Z " fill="#4B95FA" transform="translate(176,496)"/>
<path d="M0 0 C-1.8603799 3.7207598 -6.73824961 4.65039306 -10.4375 6.1875 C-11.32244141 6.56841797 -12.20738281 6.94933594 -13.11914062 7.34179688 C-14.38854492 7.87450195 -14.38854492 7.87450195 -15.68359375 8.41796875 C-16.46275146 8.74563232 -17.24190918 9.0732959 -18.04467773 9.41088867 C-20 10 -20 10 -22 9 C-21.195625 8.731875 -20.39125 8.46375 -19.5625 8.1875 C-18.716875 7.795625 -17.87125 7.40375 -17 7 C-16.67 6.01 -16.34 5.02 -16 4 C-10.87803277 0.71358755 -6.00168507 -0.51078171 0 0 Z " fill="#71A8FD" transform="translate(149,42)"/>
<path d="M0 0 C6.49142565 0.42335385 11.33492989 2.91099799 17 6 C17 6.66 17 7.32 17 8 C19.475 8.495 19.475 8.495 22 9 C21.67 9.66 21.34 10.32 21 11 C18.56076268 10.04590717 16.12364484 9.08693047 13.6875 8.125 C12.99720703 7.85558594 12.30691406 7.58617187 11.59570312 7.30859375 C8.48986901 6.07826333 5.79017305 4.86011537 3 3 C1.68 3 0.36 3 -1 3 C-0.67 2.01 -0.34 1.02 0 0 Z " fill="#70B8FC" transform="translate(108,476)"/>
<path d="M0 0 C0.33 0 0.66 0 1 0 C1.09796875 1.02996094 1.1959375 2.05992188 1.296875 3.12109375 C2.37755574 13.66459437 4.35521486 23.74182853 7 34 C5 33 5 33 4 30.26953125 C3.67 29.12871094 3.34 27.98789062 3 26.8125 C1.56457442 21.87724604 1.56457442 21.87724604 -0.1484375 17.03515625 C-1.18292265 13.34802339 -0.98369388 10.42715509 -0.625 6.625 C-0.51414062 5.37976563 -0.40328125 4.13453125 -0.2890625 2.8515625 C-0.19367188 1.91054687 -0.09828125 0.96953125 0 0 Z " fill="#FCC058" transform="translate(403,6)"/>
<path d="M0 0 C1.22396484 -0.00386719 1.22396484 -0.00386719 2.47265625 -0.0078125 C3.74689453 0.00378906 3.74689453 0.00378906 5.046875 0.015625 C5.88089844 0.00789063 6.71492188 0.00015625 7.57421875 -0.0078125 C12.69732166 0.0082726 16.94479875 0.61329633 21.796875 2.265625 C21.796875 2.595625 21.796875 2.925625 21.796875 3.265625 C12.07030048 3.37799877 2.49258454 3.19535057 -7.203125 2.265625 C-4.13200023 0.21820849 -3.4696375 0.0106384 0 0 Z " fill="#86AFFA" transform="translate(251.203125,53.734375)"/>
<path d="M0 0 C0.66 0.33 1.32 0.66 2 1 C1.04738281 1.67546875 0.09476563 2.3509375 -0.88671875 3.046875 C-2.1537005 3.9478398 -3.42062452 4.84888577 -4.6875 5.75 C-5.31333984 6.1934375 -5.93917969 6.636875 -6.58398438 7.09375 C-9.40789714 9.10449416 -12.15185372 11.12483423 -14.83203125 13.328125 C-17 15 -17 15 -19 15 C-18.61791476 12.37672817 -18.19575173 11.19530378 -16.29296875 9.296875 C-15.59816406 8.78640625 -14.90335937 8.2759375 -14.1875 7.75 C-13.50042969 7.22921875 -12.81335938 6.7084375 -12.10546875 6.171875 C-10 5 -10 5 -6 5 C-6 4.34 -6 3.68 -6 3 C-4.03533587 1.93224776 -2.03144641 0.93446535 0 0 Z " fill="#80CCFD" transform="translate(122,87)"/>
<path d="M0 0 C0.99 0.66 1.98 1.32 3 2 C0.18077503 8.31506393 -3.25271729 12.98601602 -8 18 C-8.33 16.68 -8.66 15.36 -9 14 C-8.01 13.67 -7.02 13.34 -6 13 C-4.3025965 9.99229216 -4.3025965 9.99229216 -2.8125 6.4375 C-2.28269531 5.23996094 -1.75289063 4.04242188 -1.20703125 2.80859375 C-0.80871094 1.88175781 -0.41039062 0.95492187 0 0 Z " fill="#9097FD" transform="translate(318,231)"/>
<path d="M0 0 C0.82113281 0.21785156 1.64226562 0.43570313 2.48828125 0.66015625 C7.32878842 1.77610284 10.93744579 1.62327393 15.80078125 0.72265625 C12.48306891 3.66120146 10.24006289 5.30969982 5.80078125 5.72265625 C2.90625 4.9453125 2.90625 4.9453125 -0.01171875 3.78515625 C-0.98753906 3.40488281 -1.96335937 3.02460937 -2.96875 2.6328125 C-3.70480469 2.33246094 -4.44085938 2.03210938 -5.19921875 1.72265625 C-2.19921875 -0.27734375 -2.19921875 -0.27734375 0 0 Z " fill="#A0D2EE" transform="translate(306.19921875,64.27734375)"/>
<path d="M0 0 C0.99 0.66 1.98 1.32 3 2 C1.45892578 2.05607422 1.45892578 2.05607422 -0.11328125 2.11328125 C-8.44261095 2.48483863 -16.03401469 3.31654309 -24 6 C-18.14661059 -0.72270467 -8.29801171 -2.19835385 0 0 Z " fill="#5CB1FC" transform="translate(158,219)"/>
<path d="M0 0 C2.97 0 5.94 0 9 0 C12.31306991 8.87902736 12.31306991 8.87902736 11 14 C11.18788552 16.70148909 11.59104938 19.31910146 12 22 C9.69767174 18.1961533 9.12159579 14.06197163 8.375 9.75 C8.2409375 9.00492187 8.106875 8.25984375 7.96875 7.4921875 C7.64033324 5.662437 7.3194202 3.83134246 7 2 C4.69 1.67 2.38 1.34 0 1 C0 0.67 0 0.34 0 0 Z " fill="#76C9FD" transform="translate(144,300)"/>
<path d="M0 0 C0.99 0.33 1.98 0.66 3 1 C4.32594359 6.96674616 4.0884587 12.92583615 4 19 C3.34 18.67 2.68 18.34 2 18 C1.5207983 15.52116649 1.15866731 13.12685267 0.875 10.625 C0.78863281 9.93921875 0.70226562 9.2534375 0.61328125 8.546875 C0.26164282 5.67795191 0 2.89276102 0 0 Z " fill="#97D2FC" transform="translate(415,197)"/>
<path d="M0 0 C0.33 0 0.66 0 1 0 C1.3152595 5.98993047 0.68219822 9.63560356 -2 15 C-2.66 15 -3.32 15 -4 15 C-2.73076923 2.73076923 -2.73076923 2.73076923 0 0 Z " fill="#76B8FD" transform="translate(274,294)"/>
<path d="M0 0 C-3.99697365 3.37244652 -8.27090179 6.71374722 -13 9 C-13.66 8.67 -14.32 8.34 -15 8 C-11.3316372 3.14481395 -6.76728838 -2.86308355 0 0 Z " fill="#6B9BFC" transform="translate(271,180)"/>
<path d="M0 0 C-2.64589007 3.33363045 -5.68498903 4.03826418 -9.6875 5.1875 C-11.45673828 5.70376953 -11.45673828 5.70376953 -13.26171875 6.23046875 C-14.16535156 6.48441406 -15.06898438 6.73835938 -16 7 C-16 6.34 -16 5.68 -16 5 C-15.34 5 -14.68 5 -14 5 C-14 4.34 -14 3.68 -14 3 C-12.23358317 2.3012307 -10.46167336 1.61633417 -8.6875 0.9375 C-7.20830078 0.36322266 -7.20830078 0.36322266 -5.69921875 -0.22265625 C-3 -1 -3 -1 0 0 Z " fill="#7B94FC" transform="translate(279,483)"/>
<path d="M0 0 C0.33 0 0.66 0 1 0 C1 5.61 1 11.22 1 17 C-2.40127389 12.46496815 -2.40127389 12.46496815 -2.3125 7.9375 C-2.30863281 7.08027344 -2.30476563 6.22304687 -2.30078125 5.33984375 C-2 3 -2 3 0 0 Z " fill="#9B91F9" transform="translate(322,210)"/>
<path d="M0 0 C0.67546875 0.15597656 1.3509375 0.31195313 2.046875 0.47265625 C6.67044655 1.29829403 11.33001179 1.3926458 16.015625 1.62109375 C17.00046875 1.74613281 17.9853125 1.87117188 19 2 C19.33 2.66 19.66 3.32 20 4 C13.2314676 4.10152799 6.69675136 4.03026944 0 3 C0 2.01 0 1.02 0 0 Z " fill="#47A1FA" transform="translate(66,483)"/>
<path d="M0 0 C0.99 0.33 1.98 0.66 3 1 C-0.9700218 5.21814817 -5.30840284 8.61227103 -10 12 C-10.33 11.34 -10.66 10.68 -11 10 C-8.42215154 7.35247996 -6.08351902 5.05567935 -3 3 C-2.01 3 -1.02 3 0 3 C0 2.01 0 1.02 0 0 Z " fill="#A487FC" transform="translate(339,446)"/>
<path d="M0 0 C2 3 2 3 1.4375 5.875 C-0.18168908 9.39497625 -2.13055032 11.43259766 -5 14 C-5.33 13.34 -5.66 12.68 -6 12 C-4.78515625 9.1796875 -4.78515625 9.1796875 -3.0625 5.875 C-2.49660156 4.77929688 -1.93070313 3.68359375 -1.34765625 2.5546875 C-0.90292969 1.71164062 -0.45820313 0.86859375 0 0 Z " fill="#55B9FD" transform="translate(190,271)"/>
<path d="M0 0 C0.66 0 1.32 0 2 0 C1.25749403 4.08378283 0.17076699 8.01939223 -1 12 C-1.99 12 -2.98 12 -4 12 C-3.67 9.03 -3.34 6.06 -3 3 C-2.01 2.67 -1.02 2.34 0 2 C0 1.34 0 0.68 0 0 Z " fill="#4BA7FC" transform="translate(246,200)"/>
<path d="M0 0 C0.33 0.99 0.66 1.98 1 3 C0.31292969 3.13277344 -0.37414062 3.26554688 -1.08203125 3.40234375 C-2.43361328 3.66724609 -2.43361328 3.66724609 -3.8125 3.9375 C-5.15248047 4.19853516 -5.15248047 4.19853516 -6.51953125 4.46484375 C-9.11397171 4.97741153 -9.11397171 4.97741153 -12 6 C-11.66411682 3.48087612 -11.42645046 2.32803881 -9.375 0.75 C-6.1989627 -0.25295915 -3.30771122 -0.12721966 0 0 Z " fill="#93CFFB" transform="translate(428,169)"/>
<path d="M0 0 C0 0.66 0 1.32 0 2 C-8.07562173 3.43794854 -15.7943963 4.29599372 -24 4 C-24 3.67 -24 3.34 -24 3 C-21.1259578 2.49387936 -18.25097127 1.99493459 -15.375 1.5 C-14.56675781 1.35691406 -13.75851563 1.21382812 -12.92578125 1.06640625 C-8.56122136 0.32123749 -4.44761871 -0.17272306 0 0 Z " fill="#A1A1FC" transform="translate(210,25)"/>
<path d="M0 0 C-1.32386705 2.6477341 -2.63257209 2.9407438 -5.3125 4.125 C-6.48232422 4.65480469 -6.48232422 4.65480469 -7.67578125 5.1953125 C-10 6 -10 6 -14 6 C-13 3 -13 3 -9.8125 1.3125 C-6.4652075 -0.01535157 -3.61508773 -0.26451861 0 0 Z " fill="#8E90FB" transform="translate(281,455)"/>
<path d="M0 0 C0.33 0 0.66 0 1 0 C1 4.95 1 9.9 1 15 C0.01 15.33 -0.98 15.66 -2 16 C-2.08997924 10.87118304 -1.93119789 6.0698552 -1 1 C-0.67 0.67 -0.34 0.34 0 0 Z " fill="#4BA9FC" transform="translate(40,438)"/>
<path d="M0 0 C0.66 0.33 1.32 0.66 2 1 C-1.96 9.91 -1.96 9.91 -6 19 C-7.33321983 15.00034052 -6.2797123 12.97384346 -5 9 C-4.5359375 7.39125 -4.5359375 7.39125 -4.0625 5.75 C-3.03169066 3.08202288 -2.18446789 1.78729191 0 0 Z " fill="#95AEFD" transform="translate(424,336)"/>
<path d="M0 0 C0.33 0 0.66 0 1 0 C0.56604691 5.42441362 -0.54931233 8.76058371 -4 13 C-6.25 14.375 -6.25 14.375 -8 15 C-6.62859834 11.32305352 -4.96304199 8.04681411 -2.9375 4.6875 C-2.41027344 3.80449219 -1.88304687 2.92148438 -1.33984375 2.01171875 C-0.89769531 1.34785156 -0.45554687 0.68398437 0 0 Z " fill="#7AD0FD" transform="translate(37,130)"/>
<path d="M0 0 C0.66 0 1.32 0 2 0 C1.67 0.99 1.34 1.98 1 3 C0.67 2.01 0.34 1.02 0 0 Z M-6 7 C-5.34 7.33 -4.68 7.66 -4 8 C-7.3 10.97 -10.6 13.94 -14 17 C-14 12.67008153 -11.88494631 11.08622163 -9 8 C-8.01 7.67 -7.02 7.34 -6 7 Z " fill="#9680FA" transform="translate(355,399)"/>
<path d="M0 0 C3.63 0 7.26 0 11 0 C11 0.66 11 1.32 11 2 C11.99 2.33 12.98 2.66 14 3 C14.33 3.99 14.66 4.98 15 6 C4.44191344 2.92482916 4.44191344 2.92482916 0 1 C0 0.67 0 0.34 0 0 Z " fill="#82C3FD" transform="translate(191,366)"/>
<path d="M0 0 C0.33 0 0.66 0 1 0 C2.25841946 6.74153283 3.26404456 13.13484138 3 20 C0.01771665 15.52657497 -0.12554265 12.6317868 -0.0625 7.375 C-0.05798828 6.66859375 -0.05347656 5.9621875 -0.04882812 5.234375 C-0.03703875 3.48954725 -0.01910324 1.744763 0 0 Z " fill="#65CBFC" transform="translate(2,282)"/>
<path d="M0 0 C0 3.56229451 -0.76109009 4.41109679 -2.875 7.1875 C-3.40867187 7.90292969 -3.94234375 8.61835937 -4.4921875 9.35546875 C-4.98976563 9.89816406 -5.48734375 10.44085938 -6 11 C-6.66 11 -7.32 11 -8 11 C-8.33 12.32 -8.66 13.64 -9 15 C-9.66 15 -10.32 15 -11 15 C-9.71361785 9.46855674 -7.41545655 7.42423161 -3 4 C-1.1873495 1.83779383 -1.1873495 1.83779383 0 0 Z " fill="#70C7FC" transform="translate(51,113)"/>
<path d="M0 0 C0 0.99 0 1.98 0 3 C-2.62235014 3.86316536 -5.24733452 4.71580779 -7.875 5.5625 C-8.62136719 5.80935547 -9.36773437 6.05621094 -10.13671875 6.31054688 C-15.7734375 8.11328125 -15.7734375 8.11328125 -18 7 C-16.27149655 6.20688633 -14.54216646 5.4155741 -12.8125 4.625 C-11.36810547 3.96371094 -11.36810547 3.96371094 -9.89453125 3.2890625 C-2.50909091 0 -2.50909091 0 0 0 Z " fill="#70AFFC" transform="translate(163,66)"/>
<path d="M0 0 C0 0.99 0 1.98 0 3 C-0.99 3.495 -0.99 3.495 -2 4 C-1.34 2.68 -0.68 1.36 0 0 Z M-4 4 C-3.34 4.33 -2.68 4.66 -2 5 C-3.89295449 9.05633106 -5.76556066 11.33188753 -10 13 C-10.99 12.67 -11.98 12.34 -13 12 C-12.43410156 11.50628906 -11.86820312 11.01257813 -11.28515625 10.50390625 C-10.55167969 9.86324219 -9.81820313 9.22257812 -9.0625 8.5625 C-8.33160156 7.92441406 -7.60070312 7.28632813 -6.84765625 6.62890625 C-5.87860647 5.77458541 -4.91348825 4.91348825 -4 4 Z " fill="#AF98FC" transform="translate(345,407)"/>
<path d="M0 0 C1.48604701 1.98139601 2.05190228 3.42435653 1.828125 5.90625 C0.86356764 10.36317022 -0.33062933 13.06450346 -4 16 C-2.84941444 10.60204011 -1.57578241 5.29012667 0 0 Z " fill="#6ECEFC" transform="translate(28,208)"/>
<path d="M0 0 C0 0.33 0 0.66 0 1 C-1.7491497 1.33776684 -3.49936145 1.67003671 -5.25 2 C-6.71179688 2.2784375 -6.71179688 2.2784375 -8.203125 2.5625 C-11 3 -11 3 -15 3 C-15.33 4.98 -15.66 6.96 -16 9 C-16.33 9 -16.66 9 -17 9 C-17.04241723 6.66705225 -17.04092937 4.33297433 -17 2 C-13.71067395 -1.28932605 -4.43982264 -0.09446431 0 0 Z " fill="#FAAE27" transform="translate(343,71)"/>
<path d="M0 0 C1.41623216 -0.05447047 2.83308191 -0.09300508 4.25 -0.125 C5.03890625 -0.14820313 5.8278125 -0.17140625 6.640625 -0.1953125 C9.24614317 0.02037609 10.79986977 0.6078822 13 2 C13.33 2.66 13.66 3.32 14 4 C12.04082341 3.9131252 10.08258129 3.80495488 8.125 3.6875 C6.48917969 3.60048828 6.48917969 3.60048828 4.8203125 3.51171875 C3.88960937 3.34285156 2.95890625 3.17398437 2 3 C1.34 2.01 0.68 1.02 0 0 Z " fill="#67A6FC" transform="translate(168,495)"/>
<path d="M0 0 C2.64 1.98 5.28 3.96 8 6 C7.67 6.99 7.34 7.98 7 9 C4.42262834 7.96905133 3.23715753 7.4891374 2 4.9375 C1.1704178 2.78719721 1.1704178 2.78719721 -1.125 2.25 C-2.053125 2.12625 -2.053125 2.12625 -3 2 C-2.01 1.34 -1.02 0.68 0 0 Z " fill="#9E94FB" transform="translate(269,354)"/>
<path d="M0 0 C0.66 0.33 1.32 0.66 2 1 C1.54901762 2.93922422 1.08894441 4.87633594 0.625 6.8125 C0.36976563 7.89144531 0.11453125 8.97039062 -0.1484375 10.08203125 C-1 13 -1 13 -3 16 C-3.91058531 12.92677456 -4.08886184 10.19902639 -4 7 C-3.01 7.495 -3.01 7.495 -2 8 C-1.34 5.36 -0.68 2.72 0 0 Z " fill="#89B9FD" transform="translate(290,305)"/>
<path d="M0 0 C5.94 2.475 5.94 2.475 12 5 C12 5.33 12 5.66 12 6 C10.56138706 5.91253716 9.12402492 5.80434652 7.6875 5.6875 C6.88699219 5.62949219 6.08648437 5.57148438 5.26171875 5.51171875 C2.60933741 4.91161175 1.63496121 4.14291033 0 2 C0 1.34 0 0.68 0 0 Z " fill="#62B2FC" transform="translate(124,455)"/>
<path d="M0 0 C0.99 0 1.98 0 3 0 C2.6875 1.875 2.6875 1.875 2 4 C-1 6 -1 6 -3.6875 5.625 C-4.450625 5.41875 -5.21375 5.2125 -6 5 C-5.34 4.01 -4.68 3.02 -4 2 C-2.68 2 -1.36 2 0 2 C0 1.34 0 0.68 0 0 Z " fill="#8B93FC" transform="translate(266,317)"/>
<path d="M0 0 C-1.51671964 4.55015893 -5.16891053 6.50057264 -9 9 C-9.66 8.67 -10.32 8.34 -11 8 C-8.21659292 4.18570141 -5.12174212 0 0 0 Z " fill="#9777FA" transform="translate(339,417)"/>
<path d="M0 0 C2.83857423 2.83857423 2.90046025 6.13326348 3 10 C2.67 10.99 2.34 11.98 2 13 C-0.40385693 8.79325038 -1.45226612 5.86186074 -1 1 C-0.67 0.67 -0.34 0.34 0 0 Z " fill="#57ADFC" transform="translate(244,226)"/>
<path d="M0 0 C1.91595968 -0.08133791 3.83291932 -0.13934367 5.75 -0.1875 C7.35101563 -0.23970703 7.35101563 -0.23970703 8.984375 -0.29296875 C12.30027855 0.02917214 13.59016673 0.77148914 16 3 C13.89521396 2.88590318 11.79115423 2.75834639 9.6875 2.625 C8.51574219 2.55539063 7.34398437 2.48578125 6.13671875 2.4140625 C3 2 3 2 0 0 Z " fill="#789EF9" transform="translate(261,28)"/>
<path d="M0 0 C0.91007813 0.00902344 1.82015625 0.01804687 2.7578125 0.02734375 C3.45648438 0.03894531 4.15515625 0.05054688 4.875 0.0625 C-0.26586661 3.48974441 -5.13297796 3.1640597 -11.125 3.0625 C-7.05343521 1.0267176 -4.61375072 -0.05915065 0 0 Z " fill="#6098FA" transform="translate(230.125,469.9375)"/>
<path d="M0 0 C0.66 0.33 1.32 0.66 2 1 C-1.3 3.31 -4.6 5.62 -8 8 C-8.66 7.67 -9.32 7.34 -10 7 C-9.01 6.67 -8.02 6.34 -7 6 C-7 5.01 -7 4.02 -7 3 C-4.69631264 1.93347808 -2.35981813 0.93578995 0 0 Z " fill="#9776F9" transform="translate(314,435)"/>
<path d="M0 0 C1.77074917 -0.02705729 3.54161711 -0.04642195 5.3125 -0.0625 C6.29863281 -0.07410156 7.28476563 -0.08570313 8.30078125 -0.09765625 C11 0 11 0 14 1 C14 1.66 14 2.32 14 3 C12.41753293 3.08153933 10.83383727 3.13943557 9.25 3.1875 C8.36828125 3.22230469 7.4865625 3.25710937 6.578125 3.29296875 C3.55328417 2.94923684 2.24416398 1.99772541 0 0 Z " fill="#9498FB" transform="translate(212,53)"/>
<path d="M0 0 C3.67420866 0.30618405 4.78135513 0.75771784 7.3125 3.5625 C8.1478125 4.7690625 8.1478125 4.7690625 9 6 C8.01 6.33 7.02 6.66 6 7 C1.125 2.25 1.125 2.25 0 0 Z " fill="#58AFFC" transform="translate(105,412)"/>
<path d="M0 0 C2.97 0.99 5.94 1.98 9 3 C9 3.99 9 4.98 9 6 C4.545 5.01 4.545 5.01 0 4 C0 2.68 0 1.36 0 0 Z " fill="#5DAFFC" transform="translate(93,404)"/>
<path d="M0 0 C0.66 0.33 1.32 0.66 2 1 C1.67 4.3 1.34 7.6 1 11 C0.01 11.33 -0.98 11.66 -2 12 C-1 3.42857143 -1 3.42857143 0 0 Z " fill="#96C8FD" transform="translate(415,277)"/>
<path d="M0 0 C-5.08940744 2.05362055 -9.54520815 3.43179252 -15 4 C-13 1 -13 1 -10.72265625 0.234375 C-9.40587891 -0.00539063 -9.40587891 -0.00539063 -8.0625 -0.25 C-6.74958984 -0.50523437 -6.74958984 -0.50523437 -5.41015625 -0.765625 C-3 -1 -3 -1 0 0 Z " fill="#738FFB" transform="translate(261,464)"/>
<path d="M0 0 C0 0.66 0 1.32 0 2 C-1.56116819 2.33951619 -3.12401338 2.67132544 -4.6875 3 C-5.99267578 3.2784375 -5.99267578 3.2784375 -7.32421875 3.5625 C-9.93712964 3.98972047 -12.35813038 4.07616201 -15 4 C-10.34714182 0.89809455 -5.58467324 -0.33846504 0 0 Z " fill="#8DA1FD" transform="translate(265,461)"/>
<path d="M0 0 C0.33 1.32 0.66 2.64 1 4 C-1.97 6.475 -1.97 6.475 -5 9 C-5.66 8.67 -6.32 8.34 -7 8 C-5.625 6 -5.625 6 -4 4 C-3.34 4 -2.68 4 -2 4 C-1.34 2.68 -0.68 1.36 0 0 Z " fill="#A99DFC" transform="translate(354,398)"/>
<path d="M0 0 C2.62901288 1.52206009 4.84365964 2.84365964 7 5 C6 6 6 6 3.4375 6.0625 C2.2309375 6.0315625 2.2309375 6.0315625 1 6 C0.67 7.32 0.34 8.64 0 10 C0 6.7 0 3.4 0 0 Z " fill="#93B3FD" transform="translate(198,341)"/>
<path d="M0 0 C2.375 0.3125 2.375 0.3125 5 1 C7 4 7 4 7 8 C6.34 8 5.68 8 5 8 C3.1402289 5.40759181 1.42794577 2.85589153 0 0 Z " fill="#9A85FB" transform="translate(289,340)"/>
<path d="M0 0 C1.43931117 0.45261358 2.87638999 0.91232979 4.3125 1.375 C5.11300781 1.63023437 5.91351563 1.88546875 6.73828125 2.1484375 C9 3 9 3 12 5 C9.9375 5.8125 9.9375 5.8125 7 6 C4.42776878 4.62353742 2.16251431 2.95685733 0 1 C0 0.67 0 0.34 0 0 Z " fill="#73AFFC" transform="translate(255,249)"/>
<path d="M0 0 C1.32 0.33 2.64 0.66 4 1 C4.66 3.31 5.32 5.62 6 8 C5.01 8.33 4.02 8.66 3 9 C2.01 6.03 1.02 3.06 0 0 Z " fill="#8E81FA" transform="translate(315,197)"/>
<path d="M0 0 C0.66 0.33 1.32 0.66 2 1 C0.74057614 2.19959375 -0.53295286 3.38439443 -1.8125 4.5625 C-2.87404297 5.55443359 -2.87404297 5.55443359 -3.95703125 6.56640625 C-4.63121094 7.03949219 -5.30539063 7.51257813 -6 8 C-6.99 7.67 -7.98 7.34 -9 7 C-8.01 6.67 -7.02 6.34 -6 6 C-5.5359375 5.0409375 -5.5359375 5.0409375 -5.0625 4.0625 C-3.7537301 1.52194667 -2.66967513 0.91770082 0 0 Z " fill="#7ACCFD" transform="translate(100,103)"/>
<path d="M0 0 C1.32 0.33 2.64 0.66 4 1 C4 5.29 4 9.58 4 14 C3.67 14 3.34 14 3 14 C2.86722656 13.15695313 2.73445313 12.31390625 2.59765625 11.4453125 C2.42105469 10.34960938 2.24445313 9.25390625 2.0625 8.125 C1.88847656 7.03445312 1.71445312 5.94390625 1.53515625 4.8203125 C1.14448841 2.06178454 1.14448841 2.06178454 0 0 Z " fill="#FAB035" transform="translate(399,3)"/>
<path d="M0 0 C-0.33 1.32 -0.66 2.64 -1 4 C-3.64 4.33 -6.28 4.66 -9 5 C-6.45523312 2.20075644 -3.92372883 0 0 0 Z " fill="#72A8FC" transform="translate(249,364)"/>
<path d="M0 0 C0.99 0.66 1.98 1.32 3 2 C2.25 4.875 2.25 4.875 1 8 C-0.98 8.99 -0.98 8.99 -3 10 C-2.01 6.7 -1.02 3.4 0 0 Z " fill="#91B7FD" transform="translate(408,305)"/>
<path d="M0 0 C0 0.99 0 1.98 0 3 C-0.66 3.66 -1.32 4.32 -2 5 C-2.64767793 7.57061311 -2.64767793 7.57061311 -3 10 C-3.99 10 -4.98 10 -6 10 C-6 10.66 -6 11.32 -6 12 C-6.66 11.67 -7.32 11.34 -8 11 C-7.04454634 9.53977837 -6.08553322 8.08188532 -5.125 6.625 C-4.59132812 5.81289062 -4.05765625 5.00078125 -3.5078125 4.1640625 C-2 2 -2 2 0 0 Z " fill="#6FB5FD" transform="translate(252,190)"/>
<path d="M0 0 C0.66 0 1.32 0 2 0 C1.875 1.8125 1.875 1.8125 1 4 C-3.88319518 7.146948 -3.88319518 7.146948 -7.375 6.6875 C-7.91125 6.460625 -8.4475 6.23375 -9 6 C-6.0173094 4.47551369 -3.181798 3.06059933 0 2 C0 1.34 0 0.68 0 0 Z " fill="#89CEF7" transform="translate(331,58)"/>
<path d="M0 0 C2.64 0 5.28 0 8 0 C7.01 0.495 7.01 0.495 6 1 C6 1.66 6 2.32 6 3 C2.7 3.33 -0.6 3.66 -4 4 C-2.68 3.01 -1.36 2.02 0 1 C0 0.67 0 0.34 0 0 Z " fill="#68ABFC" transform="translate(229,494)"/>
<path d="M0 0 C-0.66 0 -1.32 0 -2 0 C-2.33 0.99 -2.66 1.98 -3 3 C-5.97 3 -8.94 3 -12 3 C-7.97869817 0.31913211 -4.73968522 -1.57989507 0 0 Z " fill="#4AA3FB" transform="translate(99,483)"/>
<path d="M0 0 C0 3.38878512 -0.64361198 4.39757217 -2.4375 7.1875 C-2.88996094 7.90292969 -3.34242187 8.61835938 -3.80859375 9.35546875 C-4.20175781 9.89816406 -4.59492187 10.44085938 -5 11 C-5.33 11 -5.66 11 -6 11 C-5.63076923 4.6 -5.63076923 4.6 -2.4375 1.5625 C-1.633125 1.046875 -0.82875 0.53125 0 0 Z " fill="#4EA8FD" transform="translate(48,419)"/>
<path d="M0 0 C3 3 3 3 3.07421875 5.91796875 C2.94660156 6.99691406 2.81898438 8.07585937 2.6875 9.1875 C2.56761719 10.27417969 2.44773437 11.36085938 2.32421875 12.48046875 C2.21722656 13.31191406 2.11023438 14.14335937 2 15 C1.67 15 1.34 15 1 15 C0.67 10.05 0.34 5.1 0 0 Z " fill="#99D3FD" transform="translate(440,265)"/>
<path d="M0 0 C0.33 0 0.66 0 1 0 C1.36923077 6.4 1.36923077 6.4 -0.5 9.4375 C-0.995 9.953125 -1.49 10.46875 -2 11 C-2.66 10.34 -3.32 9.68 -4 9 C-2.68 6.03 -1.36 3.06 0 0 Z " fill="#82D5FD" transform="translate(24,152)"/>
<path d="M0 0 C0.33 0 0.66 0 1 0 C1 4.29 1 8.58 1 13 C-0.32 13.33 -1.64 13.66 -3 14 C-2.690625 12.989375 -2.38125 11.97875 -2.0625 10.9375 C-1.02352081 7.3268631 -0.45688819 3.73125353 0 0 Z " fill="#F9B033" transform="translate(402,136)"/>
<path d="M0 0 C0.66 0.33 1.32 0.66 2 1 C1.01 1.33 0.02 1.66 -1 2 C-1.33 2.99 -1.66 3.98 -2 5 C-4.31 5.33 -6.62 5.66 -9 6 C-6.45368965 3.02930459 -3.57769851 1.5224249 0 0 Z " fill="#8D7AFB" transform="translate(310,466)"/>
<path d="M0 0 C0.33 0 0.66 0 1 0 C1 3.3 1 6.6 1 10 C0.01 10.495 0.01 10.495 -1 11 C-2.26264601 6.70700357 -1.62950412 4.12168689 0 0 Z " fill="#897AFA" transform="translate(251,331)"/>
<path d="M0 0 C0.99 0.66 1.98 1.32 3 2 C2.25 4.4375 2.25 4.4375 1 7 C-1.125 7.8125 -1.125 7.8125 -3 8 C-1.125 2.25 -1.125 2.25 0 0 Z " fill="#8E89FB" transform="translate(318,231)"/>
<path d="M0 0 C0.33 0 0.66 0 1 0 C1.36923077 6.52307692 1.36923077 6.52307692 -0.5 8.9375 C-0.995 9.288125 -1.49 9.63875 -2 10 C-2 9.34 -2 8.68 -2 8 C-2.66 7.67 -3.32 7.34 -4 7 C-3.34 7 -2.68 7 -2 7 C-2.33 5.68 -2.66 4.36 -3 3 C-2.34 3 -1.68 3 -1 3 C-0.67 2.01 -0.34 1.02 0 0 Z " fill="#FDC95D" transform="translate(467,75)"/>
<path d="M0 0 C-0.33 0.99 -0.66 1.98 -1 3 C-4.3 3.33 -7.6 3.66 -11 4 C-10 2 -10 2 -7.75 0.875 C-4.98386705 -0.00513321 -2.87951649 -0.1645438 0 0 Z " fill="#789FFB" transform="translate(176,62)"/>
<path d="M0 0 C0.66 0.33 1.32 0.66 2 1 C0.3125 3.5 0.3125 3.5 -2 6 C-4.75 6.3125 -4.75 6.3125 -7 6 C-4.83312509 3.72478134 -2.54379491 1.84205838 0 0 Z " fill="#937AFC" transform="translate(327,455)"/>
<path d="M0 0 C2 1 2 1 3 3 C-1.43076923 5.09230769 -1.43076923 5.09230769 -4.3125 4.625 C-4.869375 4.41875 -5.42625 4.2125 -6 4 C-3.94766315 1.7522025 -2.99332739 0.9977758 0 0 Z " fill="#7ABAFD" transform="translate(239,367)"/>
<path d="M0 0 C2.1640625 0.77734375 2.1640625 0.77734375 4.625 1.9375 C5.44226563 2.31777344 6.25953125 2.69804687 7.1015625 3.08984375 C7.72804687 3.39019531 8.35453125 3.69054687 9 4 C5.02972626 5.32342458 2.88343142 4.36639254 -1 3 C-1.33 2.34 -1.66 1.68 -2 1 C-1.34 0.67 -0.68 0.34 0 0 Z " fill="#71A7FC" transform="translate(189,362)"/>
<path d="M0 0 C0.66 0.99 1.32 1.98 2 3 C0.02 5.97 0.02 5.97 -2 9 C-2.6875 7.3125 -2.6875 7.3125 -3 5 C-1.5625 2.25 -1.5625 2.25 0 0 Z " fill="#949CFB" transform="translate(391,346)"/>
<path d="M0 0 C0.66 0.33 1.32 0.66 2 1 C-0.0625 3.5 -0.0625 3.5 -3 6 C-6.8125 6.3125 -6.8125 6.3125 -10 6 C-8.0331974 4.0331974 -6.4555341 3.0628363 -4 1.8125 C-3.29875 1.44769531 -2.5975 1.08289063 -1.875 0.70703125 C-1.25625 0.47371094 -0.6375 0.24039062 0 0 Z " fill="#90A3FD" transform="translate(246,341)"/>
<path d="M0 0 C0.99 0.33 1.98 0.66 3 1 C2.67 4.63 2.34 8.26 2 12 C1.67 12 1.34 12 1 12 C0.67 8.04 0.34 4.08 0 0 Z " fill="#65A6FC" transform="translate(290,257)"/>
<path d="M0 0 C0.33 0.66 0.66 1.32 1 2 C0.360625 2.28875 -0.27875 2.5775 -0.9375 2.875 C-3.15206079 3.82823451 -3.15206079 3.82823451 -4 6 C-5.98 6 -7.96 6 -10 6 C-6.80009492 3.25722422 -3.99500618 1.3697164 0 0 Z " fill="#89BFFD" transform="translate(131,47)"/>
<path d="M0 0 C0.85851562 0.55300781 0.85851562 0.55300781 1.734375 1.1171875 C0.49016853 1.6517131 -0.76133436 2.16927361 -2.015625 2.6796875 C-2.71171875 2.96972656 -3.4078125 3.25976562 -4.125 3.55859375 C-6.56575284 4.19550553 -7.9059905 3.91967581 -10.265625 3.1171875 C-9.02678181 2.38951747 -7.77394159 1.68563935 -6.515625 0.9921875 C-5.81953125 0.59773438 -5.1234375 0.20328125 -4.40625 -0.203125 C-2.265625 -0.8828125 -2.265625 -0.8828125 0 0 Z " fill="#7291F9" transform="translate(168.265625,34.8828125)"/>
<path d="M0 0 C-2.26185454 2.26185454 -3.96983561 3.03921617 -7 4 C-7.99 3.67 -8.98 3.34 -10 3 C-10 2.34 -10 1.68 -10 1 C-6.52674819 -0.1577506 -3.63932552 -0.06866652 0 0 Z " fill="#8E9EFD" transform="translate(288,480)"/>
<path d="M0 0 C1.45606519 4.52092968 0.27032841 7.51648796 -1 12 C-2.32087692 9.82443801 -3.07112439 8.56899513 -2.75 6 C-1.96713323 3.91235527 -1.05252193 1.96470761 0 0 Z " fill="#92CEFD" transform="translate(440,281)"/>
<path d="M0 0 C6.15234375 0.5859375 6.15234375 0.5859375 8 1 C8.33 1.66 8.66 2.32 9 3 C2.25 3.125 2.25 3.125 0 2 C0 1.34 0 0.68 0 0 Z " fill="#679FFB" transform="translate(265,254)"/>
<path d="M0 0 C-2.6465335 2.6465335 -5.56221264 3.59941997 -9 5 C-8.625 3.0625 -8.625 3.0625 -8 1 C-5.29120665 -0.35439668 -2.99066732 -0.06501451 0 0 Z " fill="#A89EFD" transform="translate(305,472)"/>
<path d="M0 0 C1.32 0 2.64 0 4 0 C5.0625 2.375 5.0625 2.375 6 5 C5.67 5.66 5.34 6.32 5 7 C0 1.125 0 1.125 0 0 Z " fill="#62C0FD" transform="translate(45,470)"/>
<path d="M0 0 C-4.95 2.97 -4.95 2.97 -10 6 C-10.33 5.34 -10.66 4.68 -11 4 C-10.360625 3.896875 -9.72125 3.79375 -9.0625 3.6875 C-8.381875 3.460625 -7.70125 3.23375 -7 3 C-6.67 2.01 -6.34 1.02 -6 0 C-3 -1 -3 -1 0 0 Z " fill="#90ACFD" transform="translate(264,359)"/>
<path d="M0 0 C1.15941038 3.47823115 0.70820884 5.45895578 0 9 C-0.66 9 -1.32 9 -2 9 C-2.33 9.66 -2.66 10.32 -3 11 C-2.69078116 9.54096742 -2.37751201 8.08279278 -2.0625 6.625 C-1.88847656 5.81289062 -1.71445312 5.00078125 -1.53515625 4.1640625 C-1 2 -1 2 0 0 Z " fill="#FBB239" transform="translate(408,114)"/>
<path d="M0 0 C0 3 0 3 -1.8125 5.1875 C-4 7 -4 7 -7 7 C-5.66667905 3.00003714 -3.5042173 2.16217663 0 0 Z " fill="#6EBEFE" transform="translate(59,407)"/>
<path d="M0 0 C3.465 1.98 3.465 1.98 7 4 C7 4.66 7 5.32 7 6 C4.03 5.505 4.03 5.505 1 5 C0.67 3.35 0.34 1.7 0 0 Z " fill="#6999FC" transform="translate(156,367)"/>
<path d="M0 0 C0.66 0 1.32 0 2 0 C3.125 5.75 3.125 5.75 2 8 C1.34 8 0.68 8 0 8 C0 5.36 0 2.72 0 0 Z " fill="#65ABFA" transform="translate(274,259)"/>
<path d="M0 0 C0.95904856 3.83619425 0.91892116 5.32431536 0 9 C-0.99 9.33 -1.98 9.66 -3 10 C-2.01 6.7 -1.02 3.4 0 0 Z " fill="#87D5FD" transform="translate(19,163)"/>
<path d="M0 0 C1.65 0 3.3 0 5 0 C1.39042389 3.2910841 -1.12637153 4.54663921 -6 5 C-4 3 -4 3 -1 2 C-0.67 1.34 -0.34 0.68 0 0 Z " fill="#FBB02C" transform="translate(360,63)"/>
<path d="M0 0 C1.98567708 0.5859375 3.97135417 1.171875 5.95703125 1.7578125 C4.39453125 2.8828125 4.39453125 2.8828125 1.95703125 3.7578125 C-1.79296875 2.8828125 -1.79296875 2.8828125 -5.04296875 1.7578125 C-2.04296875 -0.2421875 -2.04296875 -0.2421875 0 0 Z " fill="#99CDF3" transform="translate(306.04296875,64.2421875)"/>
<path d="M0 0 C1.65 0 3.3 0 5 0 C2.47043472 3.0916909 -0.22454612 3.90931332 -4 5 C-3.34 4.01 -2.68 3.02 -2 2 C-1.34 2 -0.68 2 0 2 C0 1.34 0 0.68 0 0 Z " fill="#65ACFB" transform="translate(120,53)"/>
<path d="M0 0 C4.21912747 0.4794463 6.79663178 1.16625119 10 4 C7.03 3.67 4.06 3.34 1 3 C0.67 2.01 0.34 1.02 0 0 Z " fill="#9AD1FC" transform="translate(309,39)"/>
<path d="M0 0 C0.66 0.33 1.32 0.66 2 1 C0.12050295 4.57104439 -1.17053157 6.54744301 -5 8 C-3.62845496 5.04590299 -2.01136276 2.55991624 0 0 Z " fill="#8C84FA" transform="translate(383,403)"/>
<path d="M0 0 C1.65 1.65 3.3 3.3 5 5 C4.67 5.99 4.34 6.98 4 8 C3.67 7.01 3.34 6.02 3 5 C2.34 5 1.68 5 1 5 C0.34 3.68 -0.32 2.36 -1 1 C-0.67 0.67 -0.34 0.34 0 0 Z " fill="#57B6FD" transform="translate(185,234)"/>
<path d="M0 0 C0.66 0 1.32 0 2 0 C1.75 2.375 1.75 2.375 1 5 C-1.0625 6.3125 -1.0625 6.3125 -3 7 C-2.67 5.35 -2.34 3.7 -2 2 C-1.34 2 -0.68 2 0 2 C0 1.34 0 0.68 0 0 Z " fill="#5FABFD" transform="translate(246,200)"/>
<path d="M0 0 C-1 2 -1 2 -3.375 3.1875 C-6 4 -6 4 -9 3 C-6.38997624 -0.48003168 -4.1689578 -0.27793052 0 0 Z " fill="#6E9EFC" transform="translate(149,42)"/>
</svg>
