<?xml version="1.0" encoding="UTF-8"?>
<svg version="1.1" xmlns="http://www.w3.org/2000/svg" width="59" height="62">
<path d="M0 0 C0.99 0 1.98 0 3 0 C3.73079213 10.67768504 1.79321889 18.0351266 -5.125 26.3125 C-10.5392155 31.90278754 -15.57227806 35.58068924 -23.46484375 36.328125 C-29.70764738 36.40807553 -35.83958941 35.99006599 -42 35 C-43.670625 34.814375 -43.670625 34.814375 -45.375 34.625 C-48 34 -48 34 -50 31 C-50.375 28.5 -50.375 28.5 -50 26 C-48.3125 24.125 -48.3125 24.125 -46 23 C-42.735748 23.0796159 -41.46643694 23.51747903 -39.1875 25.875 C-38 28 -38 28 -38 31 C-24.21148429 31.85397603 -24.21148429 31.85397603 -12 26 C-9.59478763 23.06057006 -9.59478763 23.06057006 -8 20 C-7.319375 19.4225 -6.63875 18.845 -5.9375 18.25 C-1.79141855 13.43519573 -0.81078179 6.1619416 0 0 Z " fill="#7DB5FA" transform="translate(55,26)"/>
<path d="M0 0 C1.5 2.3125 1.5 2.3125 2 5 C1.125 7.3125 1.125 7.3125 0 9 C-0.66 9 -1.32 9 -2 9 C-2 9.81984375 -2 10.6396875 -2 11.484375 C-2 15.98958333 -2 20.49479167 -2 25 C-8.27 25 -14.54 25 -21 25 C-21 22.03 -21 19.06 -21 16 C-21.804375 15.79375 -22.60875 15.5875 -23.4375 15.375 C-26 14 -26 14 -27 11.0625 C-27 8 -27 8 -25.8125 6.1875 C-22.47368421 4 -22.47368421 4 -20 4 C-17.1875 6.1875 -17.1875 6.1875 -15 9 C-15.125 11 -15.125 11 -16 13 C-16.34060811 14.66519519 -16.67558396 16.33157466 -17 18 C-13.93882432 20.62386487 -13.26826873 21 -9 21 C-6.66008292 17.34387956 -6.62562051 14.26792624 -7 10 C-7.53625 9.13375 -8.0725 8.2675 -8.625 7.375 C-10 5 -10 5 -9.3125 2.25 C-6.89392028 -1.89613666 -4.29388842 -1.25238412 0 0 Z " fill="#73B5FC" transform="translate(41,21)"/>
<path d="M0 0 C0 0.66 0 1.32 0 2 C-4.75 3.125 -4.75 3.125 -7 2 C-17.22496563 1.09342601 -24.65713673 2.67331155 -33.3125 8.0625 C-40.46616885 15.88162642 -41.81977433 24.69436828 -42 35 C-42.99 34.67 -43.98 34.34 -45 34 C-45.80778039 23.8877862 -44.88055449 16.43840762 -39 8 C-28.58805264 -4.07087398 -14.41672214 -5.86442934 0 0 Z " fill="#8BD3FD" transform="translate(45,4)"/>
<path d="M0 0 C2.94645184 1.13325071 3.90936752 2.20294714 5.4375 4.9375 C5.4375 5.9275 5.4375 6.9175 5.4375 7.9375 C9.3975 8.2675 13.3575 8.5975 17.4375 8.9375 C17.4375 9.9275 17.4375 10.9175 17.4375 11.9375 C20.9025 11.4425 20.9025 11.4425 24.4375 10.9375 C24.1075 11.5975 23.7775 12.2575 23.4375 12.9375 C16.01532033 13.03131969 8.77622764 13.11693837 1.4375 11.9375 C0.32375 11.81375 -0.79 11.69 -1.9375 11.5625 C-4.5625 10.9375 -4.5625 10.9375 -6.5625 7.9375 C-6.9375 5.4375 -6.9375 5.4375 -6.5625 2.9375 C-4.3738798 0.50569978 -3.28548121 -0.08013369 0 0 Z " fill="#6DB2FC" transform="translate(11.5625,49.0625)"/>
<path d="M0 0 C1.5 2.3125 1.5 2.3125 2 5 C1.125 7.3125 1.125 7.3125 0 9 C-0.66 9 -1.32 9 -2 9 C-2 9.81984375 -2 10.6396875 -2 11.484375 C-2 15.98958333 -2 20.49479167 -2 25 C-2.66 25 -3.32 25 -4 25 C-4 24.34 -4 23.68 -4 23 C-6.475 22.01 -6.475 22.01 -9 21 C-8.67 20.484375 -8.34 19.96875 -8 19.4375 C-6.63359682 16.10689226 -6.68653165 13.57353918 -7 10 C-7.53625 9.13375 -8.0725 8.2675 -8.625 7.375 C-10 5 -10 5 -9.3125 2.25 C-6.89392028 -1.89613666 -4.29388842 -1.25238412 0 0 Z " fill="#73AAFB" transform="translate(41,21)"/>
<path d="M0 0 C0.99 0.33 1.98 0.66 3 1 C3.309375 1.804375 3.61875 2.60875 3.9375 3.4375 C4.76608159 6.14157493 4.76608159 6.14157493 7.125 7.3125 C7.74375 7.539375 8.3625 7.76625 9 8 C8.67 8.99 8.34 9.98 8 11 C7.01 11.33 6.02 11.66 5 12 C3.78130071 14.50447516 3.78130071 14.50447516 3 17 C2.01 17 1.02 17 0 17 C-1.0064275 15.33720673 -2.00585407 13.67016516 -3 12 C-5.06700655 10.67206394 -5.06700655 10.67206394 -7 10 C-6.67 9.01 -6.34 8.02 -6 7 C-5.360625 6.71125 -4.72125 6.4225 -4.0625 6.125 C-1.28319146 4.60901352 -0.92884019 2.94132727 0 0 Z " fill="#F3BE52" transform="translate(50,0)"/>
<path d="M0 0 C2.07405751 0.70015954 4.11291847 1.50329522 6.140625 2.328125 C6.140625 2.988125 6.140625 3.648125 6.140625 4.328125 C1.390625 5.453125 1.390625 5.453125 -0.859375 4.328125 C-7.57869137 4.00860506 -14.23950727 4.0965217 -20.859375 5.328125 C-21.189375 4.668125 -21.519375 4.008125 -21.859375 3.328125 C-20.539375 2.998125 -19.219375 2.668125 -17.859375 2.328125 C-17.859375 1.668125 -17.859375 1.008125 -17.859375 0.328125 C-12.86358934 -2.16976783 -5.29620238 -1.24446285 0 0 Z " fill="#91B0FB" transform="translate(38.859375,1.671875)"/>
<path d="M0 0 C0.99 0 1.98 0 3 0 C3.73610619 10.75532936 1.77583085 18.08718917 -5.25 26.375 C-9.16983891 30.50935745 -12.73157666 32.89263066 -18 35 C-18 34.34 -18 33.68 -18 33 C-16.27734375 31.80859375 -16.27734375 31.80859375 -13.9375 30.4375 C-5.35794452 24.85741116 -1.16960831 17.8975465 1 8 C0.34 8 -0.32 8 -1 8 C-0.67 5.36 -0.34 2.72 0 0 Z " fill="#A7C1F9" transform="translate(55,26)"/>
<path d="M0 0 C0.33 0.66 0.66 1.32 1 2 C5.44561476 4.54035129 9.98997835 6.05215807 15 7 C15.66 7.33 16.32 7.66 17 8 C16.67 8.66 16.34 9.32 16 10 C10.72 10 5.44 10 0 10 C0 6.7 0 3.4 0 0 Z " fill="#83C2FC" transform="translate(20,36)"/>
<path d="M0 0 C-1.450954 3.82524236 -3.38181932 5.19090966 -7 7 C-7.66 7 -8.32 7 -9 7 C-9.33 7.66 -9.66 8.32 -10 9 C-12.31 9 -14.62 9 -17 9 C-17 8.01 -17 7.02 -17 6 C-16.24074219 5.73445313 -15.48148438 5.46890625 -14.69921875 5.1953125 C-13.70535156 4.84210937 -12.71148437 4.48890625 -11.6875 4.125 C-10.70136719 3.77695312 -9.71523438 3.42890625 -8.69921875 3.0703125 C-0.95620438 0 -0.95620438 0 0 0 Z " fill="#7F9AF8" transform="translate(46,52)"/>
<path d="M0 0 C0 0.99 0 1.98 0 3 C3.465 2.505 3.465 2.505 7 2 C6.67 2.66 6.34 3.32 6 4 C3.77110504 4.05428973 1.54182529 4.09292338 -0.6875 4.125 C-2.54955078 4.15980469 -2.54955078 4.15980469 -4.44921875 4.1953125 C-7.81237857 4.01032021 -9.9985587 3.45767895 -13 2 C-8.82241639 -0.0887918 -4.59965514 -0.10696872 0 0 Z " fill="#9DD1FD" transform="translate(29,58)"/>
<path d="M0 0 C1.45903258 0.30921884 2.91720722 0.62248799 4.375 0.9375 C5.18710937 1.11152344 5.99921875 1.28554688 6.8359375 1.46484375 C9 2 9 2 11 3 C11 3.66 11 4.32 11 5 C6.48281619 6.36884358 3.41225737 5.47075246 -1 4 C-0.67 2.68 -0.34 1.36 0 0 Z " fill="#9FD8F9" transform="translate(34,1)"/>
<path d="M0 0 C1.32 1.32 2.64 2.64 4 4 C3.67 4.99 3.34 5.98 3 7 C2.34 7 1.68 7 1 7 C1 6.34 1 5.68 1 5 C-1.475 4.01 -1.475 4.01 -4 3 C-2.68 2.67 -1.36 2.34 0 2 C0 1.34 0 0.68 0 0 Z " fill="#988EFA" transform="translate(36,39)"/>
<path d="M0 0 C2.16874252 0.50603992 3.99967627 0.99983813 6 2 C5.67 2.66 5.34 3.32 5 4 C2.36 4 -0.28 4 -3 4 C-3.33 3.34 -3.66 2.68 -4 2 C-2.68 2 -1.36 2 0 2 C0 1.34 0 0.68 0 0 Z " fill="#93AFFD" transform="translate(31,42)"/>
<path d="M0 0 C-1.04874998 2.62187494 -1.64931313 3.79371361 -4.125 5.25 C-4.74375 5.4975 -5.3625 5.745 -6 6 C-6.33 5.34 -6.66 4.68 -7 4 C-3.375 0 -3.375 0 0 0 Z " fill="#9D8AF9" transform="translate(46,52)"/>
<path d="M0 0 C0.66 0 1.32 0 2 0 C2.33 1.98 2.66 3.96 3 6 C1.02 6.33 -0.96 6.66 -3 7 C-2.01 4.69 -1.02 2.38 0 0 Z " fill="#7B96FB" transform="translate(35,34)"/>
<path d="M0 0 C0 0.99 0 1.98 0 3 C-2.31 3 -4.62 3 -7 3 C-7.33 2.34 -7.66 1.68 -8 1 C-5.07175348 0.02391783 -3.04386724 -0.08226668 0 0 Z " fill="#8A8FFA" transform="translate(31,2)"/>
<path d="M0 0 C0.33 0.66 0.66 1.32 1 2 C0.01 2.66 -0.98 3.32 -2 4 C-1.67 4.66 -1.34 5.32 -1 6 C-1.99 6.33 -2.98 6.66 -4 7 C-4 6.34 -4 5.68 -4 5 C-4.99 4.67 -5.98 4.34 -7 4 C-4.69 2.68 -2.38 1.36 0 0 Z " fill="#A3D8FC" transform="translate(20,2)"/>
<path d="M0 0 C1.32 0.66 2.64 1.32 4 2 C2.68 3.32 1.36 4.64 0 6 C-0.66 5.34 -1.32 4.68 -2 4 C-1.34 2.68 -0.68 1.36 0 0 Z " fill="#7C9CFC" transform="translate(46,47)"/>
<path d="M0 0 C2.97 0.495 2.97 0.495 6 1 C6 1.66 6 2.32 6 3 C3.09399739 4.25664978 1.20395416 5 -2 5 C-2 4.34 -2 3.68 -2 3 C-1.34 3 -0.68 3 0 3 C0 2.01 0 1.02 0 0 Z " fill="#94C3FD" transform="translate(25,41)"/>
<path d="M0 0 C1.32 0 2.64 0 4 0 C3.67 2.31 3.34 4.62 3 7 C2.67 5.68 2.34 4.36 2 3 C1.34 3 0.68 3 0 3 C0 2.01 0 1.02 0 0 Z " fill="#97C7FC" transform="translate(35,31)"/>
</svg>
